<svg width="0" height="0" class="hidden">

<!-- Header SVGs -->
  <symbol fill="none" xmlns="http://www.w3.org/2000/svg" viewBox="0 0 32 32" id="headerwhatsapp">
    <g clip-path="url(#clip0_387_339)">
      <path d="M0 32L2.752 23.7446C1.35559 21.3959 0.551724 18.6549 0.551724 15.7241C0.551724 7.04 7.59172 0 16.2759 0C24.96 0 32 7.04 32 15.7241C32 24.4083 24.96 31.4483 16.2759 31.4483C13.6337 31.4483 11.1454 30.7934 8.96 29.6425L0 32Z" fill="#2CB742"></path>
      <path d="M26.3077 20.9572C25.5816 19.585 22.9041 18.0159 22.9041 18.0159C22.2983 17.6706 21.5673 17.6319 21.2219 18.2477C21.2219 18.2477 20.3518 19.291 20.1306 19.441C19.1198 20.1257 18.1836 20.0992 17.2385 19.1541L15.042 16.9577L12.8456 14.7613C11.9005 13.8162 11.874 12.8799 12.5587 11.8692C12.7088 11.6479 13.7521 10.7779 13.7521 10.7779C14.3678 10.4319 14.3292 9.70145 13.9838 9.09566C13.9838 9.09566 12.4147 6.41814 11.0426 5.69207C10.4589 5.38311 9.74218 5.49125 9.27542 5.95801L8.30549 6.92794C5.22852 10.0049 6.74356 13.4786 9.82052 16.5555L12.6327 19.3677L15.4448 22.1798C18.5218 25.2568 21.9954 26.7718 25.0724 23.6948L26.0423 22.7249C26.5091 22.257 26.6167 21.5403 26.3077 20.9572Z" fill="white"></path>
    </g>
    <defs>
      <clipPath id="clip0_387_339">
        <rect width="32" height="32" fill="white"></rect>
      </clipPath>
    </defs>
  </symbol>
  
</svg>