<svg width="0" height="0" class="hidden">

<!-- Header SVGs -->
  <symbol fill="none" xmlns="http://www.w3.org/2000/svg" viewBox="0 0 32 32" id="headerwhatsapp">
    <g clip-path="url(#clip0_387_339)">
      <path d="M0 32L2.752 23.7446C1.35559 21.3959 0.551724 18.6549 0.551724 15.7241C0.551724 7.04 7.59172 0 16.2759 0C24.96 0 32 7.04 32 15.7241C32 24.4083 24.96 31.4483 16.2759 31.4483C13.6337 31.4483 11.1454 30.7934 8.96 29.6425L0 32Z" fill="#2CB742"></path>
      <path d="M26.3077 20.9572C25.5816 19.585 22.9041 18.0159 22.9041 18.0159C22.2983 17.6706 21.5673 17.6319 21.2219 18.2477C21.2219 18.2477 20.3518 19.291 20.1306 19.441C19.1198 20.1257 18.1836 20.0992 17.2385 19.1541L15.042 16.9577L12.8456 14.7613C11.9005 13.8162 11.874 12.8799 12.5587 11.8692C12.7088 11.6479 13.7521 10.7779 13.7521 10.7779C14.3678 10.4319 14.3292 9.70145 13.9838 9.09566C13.9838 9.09566 12.4147 6.41814 11.0426 5.69207C10.4589 5.38311 9.74218 5.49125 9.27542 5.95801L8.30549 6.92794C5.22852 10.0049 6.74356 13.4786 9.82052 16.5555L12.6327 19.3677L15.4448 22.1798C18.5218 25.2568 21.9954 26.7718 25.0724 23.6948L26.0423 22.7249C26.5091 22.257 26.6167 21.5403 26.3077 20.9572Z" fill="white"></path>
    </g>
    <defs>
      <clipPath id="clip0_387_339">
        <rect width="32" height="32" fill="white"></rect>
      </clipPath>
    </defs>
  </symbol>

  <!-- Header Search --> 
  <symbol fill="none" xmlns="http://www.w3.org/2000/svg" viewBox="0 0 433 443" id="headersearch">
    <path fill-rule="evenodd" clip-rule="evenodd" d="M207.787 32C110.869 32 32 110.827 32 207.744C32 304.661 110.869 383.509 207.787 383.509C304.683 383.509 383.531 304.661 383.531 207.744C383.531 110.827 304.661 32 207.787 32ZM207.787 415.509C93.2267 415.509 0 322.304 0 207.744C0 93.184 93.248 0 207.808 0C322.368 0 415.552 93.184 415.552 207.744C415.552 322.304 322.347 415.509 207.787 415.509Z" fill="currentColor"></path>
    <path fill-rule="evenodd" clip-rule="evenodd" d="M416.32 442.069C412.078 442.066 408.011 440.378 405.014 437.376L329.835 362.453C328.346 360.969 327.164 359.205 326.356 357.263C325.549 355.322 325.132 353.24 325.129 351.137C325.123 346.891 326.804 342.815 329.803 339.808C332.802 336.801 336.872 335.108 341.119 335.102C345.366 335.096 349.441 336.777 352.448 339.776L427.627 414.763C429.872 416.996 431.403 419.847 432.025 422.952C432.647 426.057 432.333 429.278 431.121 432.204C429.909 435.13 427.856 437.63 425.22 439.386C422.585 441.143 419.487 442.077 416.32 442.069Z" fill="currentColor"></path>
  </symbol>

  
</svg>