<svg width="0" height="0" class="hidden">

<!-- Header SVGs -->
  <symbol fill="none" xmlns="http://www.w3.org/2000/svg" viewBox="0 0 32 32" id="headerwhatsapp">
    <g clip-path="url(#clip0_387_339)">
      <path d="M0 32L2.752 23.7446C1.35559 21.3959 0.551724 18.6549 0.551724 15.7241C0.551724 7.04 7.59172 0 16.2759 0C24.96 0 32 7.04 32 15.7241C32 24.4083 24.96 31.4483 16.2759 31.4483C13.6337 31.4483 11.1454 30.7934 8.96 29.6425L0 32Z" fill="#2CB742"></path>
      <path d="M26.3077 20.9572C25.5816 19.585 22.9041 18.0159 22.9041 18.0159C22.2983 17.6706 21.5673 17.6319 21.2219 18.2477C21.2219 18.2477 20.3518 19.291 20.1306 19.441C19.1198 20.1257 18.1836 20.0992 17.2385 19.1541L15.042 16.9577L12.8456 14.7613C11.9005 13.8162 11.874 12.8799 12.5587 11.8692C12.7088 11.6479 13.7521 10.7779 13.7521 10.7779C14.3678 10.4319 14.3292 9.70145 13.9838 9.09566C13.9838 9.09566 12.4147 6.41814 11.0426 5.69207C10.4589 5.38311 9.74218 5.49125 9.27542 5.95801L8.30549 6.92794C5.22852 10.0049 6.74356 13.4786 9.82052 16.5555L12.6327 19.3677L15.4448 22.1798C18.5218 25.2568 21.9954 26.7718 25.0724 23.6948L26.0423 22.7249C26.5091 22.257 26.6167 21.5403 26.3077 20.9572Z" fill="white"></path>
    </g>
    <defs>
      <clipPath id="clip0_387_339">
        <rect width="32" height="32" fill="white"></rect>
      </clipPath>
    </defs>
  </symbol>

  <!-- Header Search --> 
  <symbol fill="none" xmlns="http://www.w3.org/2000/svg" viewBox="0 0 433 443" id="headersearch">
    <path fill-rule="evenodd" clip-rule="evenodd" d="M207.787 32C110.869 32 32 110.827 32 207.744C32 304.661 110.869 383.509 207.787 383.509C304.683 383.509 383.531 304.661 383.531 207.744C383.531 110.827 304.661 32 207.787 32ZM207.787 415.509C93.2267 415.509 0 322.304 0 207.744C0 93.184 93.248 0 207.808 0C322.368 0 415.552 93.184 415.552 207.744C415.552 322.304 322.347 415.509 207.787 415.509Z" fill="currentColor"></path>
    <path fill-rule="evenodd" clip-rule="evenodd" d="M416.32 442.069C412.078 442.066 408.011 440.378 405.014 437.376L329.835 362.453C328.346 360.969 327.164 359.205 326.356 357.263C325.549 355.322 325.132 353.24 325.129 351.137C325.123 346.891 326.804 342.815 329.803 339.808C332.802 336.801 336.872 335.108 341.119 335.102C345.366 335.096 349.441 336.777 352.448 339.776L427.627 414.763C429.872 416.996 431.403 419.847 432.025 422.952C432.647 426.057 432.333 429.278 431.121 432.204C429.909 435.13 427.856 437.63 425.22 439.386C422.585 441.143 419.487 442.077 416.32 442.069Z" fill="currentColor"></path>
  </symbol>

  <!-- Mobile Call on Header -->
  <symbol fill="none" xmlns="http://www.w3.org/2000/svg" viewBox="0 0 459 459" id="mobilewhatsapp">
    <path d="M241.395 335.775C234.307 329.654 225.213 326.355 215.849 326.508C206.484 326.662 197.504 330.256 190.62 336.606C188.556 338.554 186.112 340.054 183.44 341.01C180.768 341.966 177.927 342.358 175.096 342.161C172.324 341.974 169.62 341.219 167.153 339.94C164.687 338.662 162.51 336.889 160.76 334.732C136.676 305.502 115.839 273.742 98.6144 240.012C97.3364 237.547 96.5791 234.845 96.3896 232.075C96.2002 229.304 96.5826 226.524 97.5131 223.908C99.4258 218.518 103.425 214.248 109.299 211.649C125.934 204.288 134.261 184.484 127.943 167.424L111.637 115.123C107.222 97.3862 89.0602 85.7358 71.0823 89.1266L69.981 89.3391C57.7596 91.6594 46.1863 96.6011 36.0583 103.824C25.9303 111.047 17.4882 120.379 11.3135 131.178C5.18802 141.832 1.44511 153.687 0.342733 165.926C-0.759643 178.166 0.80472 190.499 4.92802 202.076C36.7709 291.042 89.3324 371.151 158.267 435.78C167.242 444.175 177.931 450.522 189.598 454.384C201.265 458.245 213.631 459.528 225.842 458.143C238.207 456.779 250.13 452.75 260.788 446.335C271.447 439.919 280.587 431.269 287.581 420.98C292.942 413.108 295.219 403.539 293.977 394.096C292.735 384.653 288.062 375.998 280.848 369.78L241.395 335.775ZM275.602 412.836C269.784 421.396 262.179 428.592 253.312 433.929C244.445 439.266 234.525 442.616 224.238 443.749C214.106 444.893 203.846 443.827 194.165 440.625C184.484 437.423 175.612 432.161 168.159 425.202C100.913 362.15 49.6396 283.998 18.5781 197.207C15.1587 187.601 13.8629 177.368 14.7802 167.213C15.6975 157.058 18.8059 147.223 23.8913 138.385C29.0267 129.397 36.0502 121.631 44.4775 115.62C52.9047 109.609 62.5353 105.498 72.7052 103.569L73.7969 103.356C74.9754 103.144 76.154 103.028 77.3325 103.028C86.5099 103.028 95.3298 109.597 97.687 119.035L114.177 171.926C114.217 172.063 114.262 172.198 114.312 172.331C118.109 182.378 113.221 194.067 102.923 198.627C98.5106 200.542 94.5402 203.345 91.2592 206.862C87.9783 210.379 85.4572 214.534 83.8533 219.068C82.2545 223.539 81.5941 228.291 81.9132 233.028C82.2323 237.765 83.5241 242.385 85.7081 246.6C103.411 281.267 124.828 313.908 149.583 343.948C152.581 347.629 156.305 350.654 160.523 352.833C164.741 355.012 169.363 356.298 174.101 356.613C178.898 356.939 183.711 356.278 188.242 354.669C192.774 353.061 196.927 350.539 200.444 347.262C204.715 343.326 210.284 341.098 216.091 341.001C221.899 340.905 227.538 342.948 231.937 346.74L271.39 380.764C275.909 384.659 278.836 390.081 279.613 395.997C280.39 401.912 278.962 407.906 275.602 412.836Z" fill="currentColor"></path>
    <path d="M298.875 0C210.801 0 139.141 58.5612 139.141 130.541C139.141 156.971 148.762 182.417 166.963 204.095C183.752 224.246 206.86 240.031 233.957 249.885C236.517 259.188 233.667 268.394 225.108 278.605C224.283 279.588 223.734 280.773 223.517 282.037C223.3 283.302 223.423 284.602 223.873 285.804C224.323 287.005 225.084 288.066 226.079 288.877C227.073 289.688 228.265 290.221 229.533 290.42C233.494 291.038 237.377 291.347 241.164 291.347C263.276 291.347 282.201 280.895 295.523 261.149L298.875 261.207C387.074 261.207 458.832 202.588 458.832 130.541C458.832 58.5612 387.074 0 298.875 0ZM298.875 246.716L291.601 246.6C290.358 246.601 289.137 246.922 288.055 247.531C286.972 248.14 286.064 249.017 285.418 250.078C275.052 267.119 261.103 276.074 243.84 276.828C250.206 265.071 251.075 253.247 246.419 241.548C246.031 240.576 245.437 239.7 244.679 238.98C243.92 238.259 243.014 237.712 242.024 237.375C215.989 228.478 193.876 213.765 178.072 194.802C162.084 175.751 153.631 153.523 153.631 130.541C153.631 66.5503 218.79 14.4906 298.875 14.4906C379.085 14.4906 444.341 66.5503 444.341 130.541C444.341 194.589 379.085 246.716 298.875 246.716Z" fill="currentColor"></path>
    <path d="M369.173 94.2273C351.832 94.2273 337.719 108.331 337.719 125.681C337.719 143.032 351.823 157.136 369.173 157.136C386.523 157.136 400.627 143.032 400.627 125.681C400.627 108.331 386.523 94.2273 369.173 94.2273ZM369.173 142.645C359.822 142.645 352.209 135.033 352.209 125.681C352.209 116.33 359.822 108.718 369.173 108.718C378.524 108.718 386.137 116.33 386.137 125.681C386.137 135.033 378.524 142.645 369.173 142.645ZM294.324 94.2273C276.984 94.2273 262.87 108.331 262.87 125.681C262.87 143.032 276.974 157.136 294.324 157.136C311.674 157.136 325.778 143.032 325.778 125.681C325.778 108.331 311.674 94.2273 294.324 94.2273ZM294.324 142.645C284.973 142.645 277.361 135.033 277.361 125.681C277.361 116.33 284.973 108.718 294.324 108.718C303.676 108.718 311.288 116.33 311.288 125.681C311.288 135.033 303.676 142.645 294.324 142.645ZM219.466 94.2273C202.126 94.2273 188.021 108.331 188.021 125.681C188.021 143.032 202.126 157.136 219.476 157.136C236.826 157.136 250.93 143.032 250.93 125.681C250.93 108.331 236.816 94.2273 219.476 94.2273H219.466ZM219.466 142.645C210.115 142.645 202.512 135.033 202.512 125.681C202.512 116.33 210.115 108.718 219.476 108.718C228.837 108.718 236.439 116.33 236.439 125.681C236.439 135.033 228.827 142.645 219.476 142.645H219.466Z" fill="currentColor"></path>
  </symbol>

  <!-- Company Logo -->
  <symbol fill="none" xmlns="http://www.w3.org/2000/svg" viewBox="0 0 68 50" id="company-logo">
    <path fill-rule="evenodd" clip-rule="evenodd" d="M15.5568 32.2571C18.9877 32.1574 22.3581 32.5571 25.6681 33.4565C29.8389 34.7071 33.9584 36.1018 38.0266 37.6406C40.4874 38.5027 42.9964 39.1906 45.5537 39.7048C50.6155 40.6027 55.5213 40.0821 60.2713 38.1427C62.9127 37.0833 65.0098 35.4036 67.448 33.9174C67.4833 33.8959 67.5369 33.8692 67.6769 33.7745C67.6233 33.8421 67.6319 33.8565 67.3965 34.0859C63.7351 37.6504 59.5635 40.3477 54.6539 41.9362C50.4287 43.1306 46.178 43.2236 41.9024 42.2153C39.298 41.5639 36.7327 40.783 34.2065 39.8721C30.5988 38.4527 26.9661 37.0951 23.3088 35.7998C20.5206 34.8515 17.6557 34.2751 14.7142 34.0701C10.4839 33.8498 6.42066 34.538 2.52441 36.1345C6.55408 33.7889 10.8982 32.4962 15.5568 32.2571Z" fill="#143254"></path>
    <path fill-rule="evenodd" clip-rule="evenodd" d="M28.8735 42.3268C25.8362 40.9147 22.7279 39.6594 19.5486 38.5609C15.1854 37.1218 10.7289 36.6659 6.17916 37.1941C5.84081 37.2035 5.50378 37.2315 5.16803 37.278C3.39274 37.5606 1.67011 37.9791 0 38.533C6.61306 35.1877 13.5412 34.3415 20.7844 35.9947C23.6266 36.7497 26.4166 37.6609 29.1544 38.7282C31.6135 39.7262 34.0852 40.6932 36.5694 41.6294C39.1767 42.598 41.8542 43.3044 44.6022 43.7494C52.5525 44.5794 59.6489 42.5432 65.8922 37.6406C62.3303 41.4035 58.0426 44.1094 53.0284 45.7577C48.1001 47.1471 43.1757 47.1285 38.2545 45.7018C35.0578 44.7585 31.9307 43.6332 28.8735 42.3268Z" fill="#3983C7"></path>
    <path fill-rule="evenodd" clip-rule="evenodd" d="M29.3791 41.88C32.5085 43.3721 35.7292 44.6644 39.0411 45.7574C47.1986 48.0535 54.8752 46.975 62.0724 42.5215C62.7286 42.0762 63.384 41.6485 64.0385 41.2385C60.7524 44.4524 56.9326 46.8512 52.5789 48.435C47.6103 50.0785 42.6106 50.1718 37.5804 48.7141C34.5875 47.8285 31.6849 46.7129 28.8735 45.3668C25.8062 43.8529 22.7166 42.3838 19.6048 40.9594C16.7393 39.6885 13.7621 38.7774 10.6731 38.2259C7.08995 37.6579 3.53229 37.7694 0 38.5606C0.158804 38.4677 0.327327 38.4027 0.505567 38.3653C2.60052 37.6174 4.75114 37.0679 6.9656 36.7753C7.06454 36.7624 6.98029 36.7738 7.07713 36.7606C11.6138 36.1312 15.691 36.675 20.0542 38.1141C23.2334 39.2127 26.3417 40.4679 29.3791 41.88Z" fill="#C1D8ED"></path>
    <path d="M35.8254 18.9402L24.6235 27.3571C26.6189 26.7979 31.0197 25.505 32.6595 24.807C34.2996 24.109 35.4534 24.7399 35.8254 25.1426L41.5122 29.4192L42.4125 27.3571C43.0871 25.854 43.7691 26.0098 44.3425 26.3153L49.1254 28.732L38.606 13.2617L40.3986 23.982L35.8254 18.9402Z" fill="#143254"></path>
    <path d="M11.7355 19.7664L0.151367 30.8141L14.9692 25.0766L16.2639 29.1432L25.0197 19.4082L23.7789 24.2141L33.9536 14.972L35.8845 4.40477C43.45 11.7216 40.604 13.6061 52.3794 29.1432L52.0074 23.3515L67.8276 31.3612L35.4426 0L16.2639 19.7664H11.7355Z" fill="#143254"></path>
  </symbol>

  <!-- Package Icons -->
  <symbol fill="none" xmlns="http://www.w3.org/2000/svg" viewBox="0 0 15 16" id="package_card_duration">
    <path d="M13.5362 1.82133H12.8812V0.965433C12.8812 0.709384 12.7794 0.463823 12.5984 0.282769C12.4173 0.101715 12.1718 6.56149e-08 11.9157 6.56149e-08C11.6597 6.56149e-08 11.4141 0.101715 11.2331 0.282769C11.052 0.463823 10.9503 0.709384 10.9503 0.965433V1.82133H8.488V0.965433C8.488 0.838651 8.46303 0.71311 8.41451 0.595978C8.36599 0.478846 8.29488 0.372418 8.20523 0.282769C8.11558 0.19312 8.00915 0.122007 7.89202 0.0734892C7.77489 0.0249716 7.64935 0 7.52257 0C7.39579 0 7.27024 0.0249716 7.15311 0.0734892C7.03598 0.122007 6.92955 0.19312 6.8399 0.282769C6.75025 0.372418 6.67914 0.478846 6.63062 0.595978C6.58211 0.71311 6.55713 0.838651 6.55713 0.965433V1.82133H4.09484V0.965433C4.09484 0.709384 3.99312 0.463823 3.81207 0.282769C3.63102 0.101715 3.38545 6.56149e-08 3.12941 6.56149e-08C2.87336 6.56149e-08 2.6278 0.101715 2.44674 0.282769C2.26569 0.463823 2.16397 0.709384 2.16397 0.965433V1.82133H1.46384C1.07433 1.82323 0.701472 1.97953 0.427051 2.25597C0.15263 2.5324 -0.000947575 2.90639 4.39943e-06 3.2959V13.9374C-0.000947343 14.327 0.152668 14.701 0.427149 14.9774C0.701629 15.2539 1.07456 15.4102 1.46412 15.412H13.5362C13.9257 15.4101 14.2985 15.2538 14.5729 14.9773C14.8474 14.7009 15.0009 14.3269 15 13.9374V3.2959C15.0009 2.90634 14.8473 2.53231 14.5729 2.25587C14.2984 1.97943 13.9257 1.82315 13.5362 1.82133ZM11.5007 0.965433C11.5007 0.855364 11.5444 0.749804 11.6223 0.671973C11.7001 0.594143 11.8057 0.550418 11.9157 0.550418C12.0258 0.550418 12.1314 0.594143 12.2092 0.671973C12.287 0.749804 12.3307 0.855364 12.3307 0.965433V1.82133H11.5007V0.965433ZM7.10755 0.965433C7.10755 0.855364 7.15128 0.749804 7.22911 0.671973C7.30694 0.594143 7.4125 0.550418 7.52257 0.550418C7.63264 0.550418 7.7382 0.594143 7.81603 0.671973C7.89386 0.749804 7.93758 0.855364 7.93758 0.965433V1.82133H7.10755V0.965433ZM2.71439 0.965433C2.71439 0.855364 2.75812 0.749804 2.83595 0.671973C2.91378 0.594143 3.01934 0.550418 3.12941 0.550418C3.23947 0.550418 3.34504 0.594143 3.42287 0.671973C3.5007 0.749804 3.54442 0.855364 3.54442 0.965433V1.82133H2.71412L2.71439 0.965433ZM1.46384 2.37175H2.16397V2.90401C2.16503 3.05761 2.20254 3.20878 2.27342 3.34506C2.3443 3.48134 2.44652 3.59885 2.57168 3.68792C2.69683 3.77699 2.84134 3.83508 2.99332 3.8574C3.14531 3.87972 3.30042 3.86564 3.4459 3.81632C3.48005 3.80449 3.51154 3.78604 3.53856 3.76203C3.56559 3.73803 3.58762 3.70894 3.6034 3.67642C3.61918 3.6439 3.6284 3.60859 3.63053 3.57251C3.63267 3.53642 3.62767 3.50027 3.61584 3.46612C3.604 3.43197 3.58555 3.40048 3.56155 3.37346C3.53754 3.34643 3.50845 3.3244 3.47593 3.30862C3.44341 3.29284 3.4081 3.28362 3.37202 3.28148C3.33594 3.27935 3.29979 3.28434 3.26563 3.29618C3.20309 3.31733 3.13641 3.32335 3.07109 3.31374C3.00577 3.30413 2.94365 3.27916 2.88985 3.24088C2.83605 3.2026 2.79209 3.15211 2.76159 3.09355C2.73109 3.03499 2.71491 2.97003 2.71439 2.90401V2.37175H6.55713V2.90401C6.55743 3.15996 6.65923 3.40536 6.84022 3.58635C7.02122 3.76734 7.26661 3.86915 7.52257 3.86944C7.75952 3.88127 8.10656 3.76431 8.00914 3.46626C7.99729 3.4321 7.97883 3.40061 7.95481 3.37358C7.93079 3.34656 7.90168 3.32454 7.86915 3.30877C7.83661 3.293 7.80129 3.28379 7.7652 3.28168C7.7291 3.27957 7.69295 3.28459 7.6588 3.29645C7.59623 3.31762 7.52953 3.32363 7.46418 3.314C7.39884 3.30438 7.33671 3.27938 7.2829 3.24108C7.22909 3.20277 7.18514 3.15224 7.15466 3.09364C7.12418 3.03505 7.10803 2.97005 7.10755 2.90401V2.37175H10.9503V2.90401C10.9514 3.05758 10.9889 3.20871 11.0597 3.34496C11.1306 3.48122 11.2328 3.59871 11.3579 3.68777C11.483 3.77683 11.6275 3.83493 11.7795 3.85728C11.9314 3.87963 12.0865 3.86559 12.2319 3.81632C12.3005 3.7921 12.3566 3.74176 12.3881 3.67629C12.4197 3.61082 12.424 3.53554 12.4003 3.46687C12.3765 3.39819 12.3265 3.34171 12.2613 3.30973C12.196 3.27775 12.1208 3.27288 12.052 3.29618C11.9894 3.3174 11.9227 3.32346 11.8574 3.31388C11.792 3.30429 11.7299 3.27933 11.6761 3.24104C11.6222 3.20275 11.5783 3.15223 11.5478 3.09364C11.5173 3.03505 11.5012 2.97005 11.5007 2.90401V2.37175H13.5362C13.7797 2.3735 14.0127 2.47177 14.1839 2.64501C14.3551 2.81825 14.4507 3.05232 14.4496 3.2959V4.68158C14.409 4.65639 14.3625 4.64252 14.3147 4.6414L0.550422 4.65571V3.29618C0.549177 3.05246 0.644691 2.8182 0.815995 2.64483C0.9873 2.47146 1.2204 2.37315 1.46412 2.37148L1.46384 2.37175ZM13.5362 14.8616H1.46384C1.22027 14.8598 0.987323 14.7615 0.816093 14.5883C0.644863 14.4151 0.549323 14.181 0.550422 13.9374V5.20613L14.3153 5.19182C14.3628 5.19059 14.4092 5.17672 14.4496 5.15164V13.9374C14.4507 14.181 14.3551 14.4152 14.1838 14.5884C14.0125 14.7617 13.7798 14.8599 13.5362 14.8616Z" fill="currentColor"></path>
    <path d="M4.21492 6.46904H2.43927C2.36628 6.46904 2.29628 6.49804 2.24467 6.54965C2.19306 6.60126 2.16406 6.67126 2.16406 6.74425V8.34817C2.16406 8.42116 2.19306 8.49116 2.24467 8.54277C2.29628 8.59438 2.36628 8.62338 2.43927 8.62338H4.21492C4.28791 8.62338 4.35791 8.59438 4.40952 8.54277C4.46113 8.49116 4.49013 8.42116 4.49013 8.34817V6.74425C4.49013 6.67126 4.46113 6.60126 4.40952 6.54965C4.35791 6.49804 4.28791 6.46904 4.21492 6.46904ZM3.93971 8.07296H2.71448V7.01946H3.93971V8.07296ZM8.12013 6.46904H6.34421C6.27122 6.46904 6.20122 6.49804 6.14961 6.54965C6.098 6.60126 6.069 6.67126 6.069 6.74425V8.34817C6.069 8.42116 6.098 8.49116 6.14961 8.54277C6.20122 8.59438 6.27122 8.62338 6.34421 8.62338H8.11986C8.19285 8.62338 8.26285 8.59438 8.31446 8.54277C8.36607 8.49116 8.39507 8.42116 8.39507 8.34817V6.74425C8.39507 6.67126 8.36607 6.60126 8.31446 6.54965C8.26285 6.49804 8.19312 6.46904 8.12013 6.46904ZM7.84493 8.07296H6.61942V7.01946H7.84465L7.84493 8.07296ZM12.0251 6.46904H10.2494C10.1764 6.46904 10.1064 6.49804 10.0548 6.54965C10.0032 6.60126 9.97422 6.67126 9.97422 6.74425V8.34817C9.97422 8.42116 10.0032 8.49116 10.0548 8.54277C10.1064 8.59438 10.1764 8.62338 10.2494 8.62338H12.0253C12.0983 8.62338 12.1683 8.59438 12.22 8.54277C12.2716 8.49116 12.3006 8.42116 12.3006 8.34817V6.74425C12.3006 6.67126 12.2716 6.60126 12.22 6.54965C12.1683 6.49804 12.0981 6.46904 12.0251 6.46904ZM11.7499 8.07296H10.5246V7.01946H11.7501L11.7499 8.07296ZM4.21492 10.374H2.43927C2.36628 10.374 2.29628 10.403 2.24467 10.4546C2.19306 10.5062 2.16406 10.5762 2.16406 10.6492V12.2531C2.16406 12.3261 2.19306 12.3961 2.24467 12.4477C2.29628 12.4993 2.36628 12.5283 2.43927 12.5283H4.21492C4.28791 12.5283 4.35791 12.4993 4.40952 12.4477C4.46113 12.3961 4.49013 12.3261 4.49013 12.2531V10.6492C4.49013 10.5762 4.46113 10.5062 4.40952 10.4546C4.35791 10.403 4.28791 10.374 4.21492 10.374ZM3.93971 11.9779H2.71448V10.9244H3.93971V11.9779ZM8.12013 10.374H6.34421C6.27122 10.374 6.20122 10.403 6.14961 10.4546C6.098 10.5062 6.069 10.5762 6.069 10.6492V12.2531C6.069 12.3261 6.098 12.3961 6.14961 12.4477C6.20122 12.4993 6.27122 12.5283 6.34421 12.5283H8.11986C8.19285 12.5283 8.26285 12.4993 8.31446 12.4477C8.36607 12.3961 8.39507 12.3261 8.39507 12.2531V10.6492C8.39507 10.5762 8.36607 10.5062 8.31446 10.4546C8.26285 10.403 8.19312 10.374 8.12013 10.374ZM7.84493 11.9779H6.61942V10.9244H7.84465L7.84493 11.9779ZM12.0251 10.374H10.2494C10.1764 10.374 10.1064 10.403 10.0548 10.4546C10.0032 10.5062 9.97422 10.5762 9.97422 10.6492V12.2531C9.97422 12.3261 10.0032 12.3961 10.0548 12.4477C10.1064 12.4993 10.1764 12.5283 10.2494 12.5283H12.0253C12.0983 12.5283 12.1683 12.4993 12.22 12.4477C12.2716 12.3961 12.3006 12.3261 12.3006 12.2531V10.6492C12.3006 10.5762 12.2716 10.5062 12.22 10.4546C12.1683 10.403 12.0981 10.374 12.0251 10.374ZM11.7499 11.9779H10.5246V10.9244H11.7501L11.7499 11.9779Z" fill="currentColor"></path>
  </symbol>
  <symbol fill="none" xmlns="http://www.w3.org/2000/svg" viewBox="0 0 82 14" id="5_star">
    <g clip-path="url(#clip0_448_308)">
      <path d="M7.33114 0.544736L9.11195 4.75961L13.6711 5.15128C13.9873 5.17858 14.1159 5.57312 13.8759 5.78081L10.4177 8.77686L11.454 13.2339C11.5259 13.5437 11.1903 13.7873 10.9186 13.6227L7.00056 11.2598L3.08249 13.6227C2.81012 13.7866 2.47523 13.5429 2.54709 13.2339L3.58339 8.77686L0.124529 5.78009C-0.1155 5.5724 0.0124195 5.17787 0.329344 5.15056L4.88845 4.75889L6.66926 0.544736C6.79287 0.251527 7.20753 0.251527 7.33114 0.544736Z" fill="currentColor"></path>
    </g>
    <g clip-path="url(#clip1_448_308)">
      <path d="M24.3311 0.544736L26.112 4.75961L30.6711 5.15128C30.9873 5.17858 31.1159 5.57312 30.8759 5.78081L27.4177 8.77686L28.454 13.2339C28.5259 13.5437 28.1903 13.7873 27.9186 13.6227L24.0006 11.2598L20.0825 13.6227C19.8101 13.7866 19.4752 13.5429 19.5471 13.2339L20.5834 8.77686L17.1245 5.78009C16.8845 5.5724 17.0124 5.17787 17.3293 5.15056L21.8885 4.75889L23.6693 0.544736C23.7929 0.251527 24.2075 0.251527 24.3311 0.544736Z" fill="currentColor"></path>
    </g>
    <g clip-path="url(#clip2_448_308)">
      <path d="M41.3311 0.544736L43.112 4.75961L47.6711 5.15128C47.9873 5.17858 48.1159 5.57312 47.8759 5.78081L44.4177 8.77686L45.454 13.2339C45.5259 13.5437 45.1903 13.7873 44.9186 13.6227L41.0006 11.2598L37.0825 13.6227C36.8101 13.7866 36.4752 13.5429 36.5471 13.2339L37.5834 8.77686L34.1245 5.78009C33.8845 5.5724 34.0124 5.17787 34.3293 5.15056L38.8885 4.75889L40.6693 0.544736C40.7929 0.251527 41.2075 0.251527 41.3311 0.544736Z" fill="currentColor"></path>
    </g>
    <g clip-path="url(#clip3_448_308)">
      <path d="M58.3311 0.544736L60.112 4.75961L64.6711 5.15128C64.9873 5.17858 65.1159 5.57312 64.8759 5.78081L61.4177 8.77686L62.454 13.2339C62.5259 13.5437 62.1903 13.7873 61.9186 13.6227L58.0006 11.2598L54.0825 13.6227C53.8101 13.7866 53.4752 13.5429 53.5471 13.2339L54.5834 8.77686L51.1245 5.78009C50.8845 5.5724 51.0124 5.17787 51.3293 5.15056L55.8885 4.75889L57.6693 0.544736C57.7929 0.251527 58.2075 0.251527 58.3311 0.544736Z" fill="currentColor"></path>
    </g>
    <g clip-path="url(#clip4_448_308)">
      <path d="M75.3311 0.544736L77.112 4.75961L81.6711 5.15128C81.9873 5.17858 82.1159 5.57312 81.8759 5.78081L78.4177 8.77686L79.454 13.2339C79.5259 13.5437 79.1903 13.7873 78.9186 13.6227L75.0006 11.2598L71.0825 13.6227C70.8101 13.7866 70.4752 13.5429 70.5471 13.2339L71.5834 8.77686L68.1245 5.78009C67.8845 5.5724 68.0124 5.17787 68.3293 5.15056L72.8885 4.75889L74.6693 0.544736C74.7929 0.251527 75.2075 0.251527 75.3311 0.544736Z" fill="currentColor"></path>
    </g>
    <defs>
      <clipPath id="clip0_448_308">
        <rect width="14" height="14" fill="white"></rect>
      </clipPath>
      <clipPath id="clip1_448_308">
        <rect width="14" height="14" fill="white" transform="translate(17)"></rect>
      </clipPath>
      <clipPath id="clip2_448_308">
        <rect width="14" height="14" fill="white" transform="translate(34)"></rect>
      </clipPath>
      <clipPath id="clip3_448_308">
        <rect width="14" height="14" fill="white" transform="translate(51)"></rect>
      </clipPath>
      <clipPath id="clip4_448_308">
        <rect width="14" height="14" fill="white" transform="translate(68)"></rect>
      </clipPath>
    </defs>
  </symbol>
<!-- Package BTN -->
  <symbol fill="none" xmlns="http://www.w3.org/2000/svg" viewBox="0 0 410 478" id="package-arrow">
    <path d="M126.036 475.861C127.914 477.03 134.527 480.324 141.166 474.641L404.752 249.591C407.833 246.955 409.599 243.072 409.599 238.933C409.599 234.795 407.833 230.912 404.752 228.275L141.166 3.2256C138.299 0.776534 135.44 0 132.965 0C129.706 0 127.103 1.34827 126.036 2.00533C123.49 3.53486 121.514 5.85606 120.41 8.61428C119.307 11.3725 119.137 14.4161 119.926 17.28L172.278 231.484C173.473 236.356 173.473 241.51 172.278 246.383L119.926 460.587C119.137 463.451 119.307 466.494 120.41 469.252C121.514 472.011 123.49 474.332 126.036 475.861Z" fill="currentColor"></path>
    <path d="M51.2 290.134C79.477 290.134 102.4 267.211 102.4 238.934C102.4 210.657 79.477 187.734 51.2 187.734C22.923 187.734 0 210.657 0 238.934C0 267.211 22.923 290.134 51.2 290.134Z" fill="currentColor"></path>
  </symbol>


 <!-- Home content -->
  <symbol fill="none" xmlns="http://www.w3.org/2000/svg" viewBox="0 0 40 40" id="bestprice">
    <path d="M34.3998 3.63871C28.398 3.02582 24.726 1.96301 22.5936 1.09324C20.9352 0.416837 19.0666 0.416837 17.4084 1.09324C15.2759 1.96301 11.604 3.02582 5.60211 3.63871C3.88672 3.81387 2.57422 5.24426 2.57422 6.96855V15.454C2.57422 24.9217 7.63914 33.7958 16.0172 38.2053C16.4142 38.4143 16.8164 38.6133 17.2233 38.8024C18.9788 39.618 21.0231 39.618 22.7786 38.8024C23.1855 38.6134 23.5877 38.4143 23.9847 38.2053C32.3627 33.7958 37.4277 24.9217 37.4277 15.454V6.96855C37.4277 5.24426 36.1151 3.81387 34.3998 3.63871Z" fill="#F9FFFB"></path>
    <path d="M12.4962 13.8967V4.85963C12.4962 3.86424 12.9074 2.96143 13.5745 2.31299C11.544 2.82018 8.93227 3.29877 5.60219 3.63885C3.8868 3.814 2.5743 5.24439 2.57422 6.96869V15.4542C2.57422 24.9218 7.63914 33.796 16.0172 38.2055C16.4142 38.4144 16.8164 38.6135 17.2233 38.8025C18.9788 39.6181 21.0231 39.6181 22.7786 38.8025C23.1855 38.6135 23.5877 38.4144 23.9847 38.2055C24.4862 37.9414 24.9783 37.6599 25.4602 37.3615C17.3484 32.4526 12.4961 23.4592 12.4962 13.8967Z" fill="#C1D8ED"></path>
    <path d="M19.9998 18.9061C19.9998 14.3973 22.5047 10.4738 26.1985 8.45035C25.4526 6.91792 23.2464 6.39511 21.928 7.8555C20.8964 8.99808 19.1032 8.99808 18.0718 7.8555C16.4337 6.04113 13.4246 7.28761 13.5493 9.72878C13.6278 11.2661 12.3599 12.5341 10.8225 12.4556C8.38136 12.3309 7.13496 15.34 8.94925 16.978C10.0918 18.0096 10.0918 19.8028 8.94925 20.8343C7.13488 22.4723 8.38136 25.4814 10.8225 25.3567C12.3599 25.2782 13.6278 26.5461 13.5493 28.0835C13.4246 30.5246 16.4338 31.771 18.0718 29.9568C19.1033 28.8142 20.8965 28.8142 21.928 29.9568C23.2464 31.4171 25.4526 30.8943 26.1985 29.3619C22.5047 27.3385 19.9998 23.415 19.9998 18.9061Z" fill="#3983C7"></path>
    <path d="M18.3099 24.2578C18.0438 24.2578 17.7805 24.2034 17.5361 24.098C17.2918 23.9925 17.0716 23.8383 16.889 23.6447L14.6728 21.2945C13.9327 20.5097 13.969 19.2736 14.7538 18.5336C15.5385 17.7935 16.7748 17.8298 17.5148 18.6146L18.2727 19.4184L22.4512 14.7518C23.1707 13.9483 24.4054 13.88 25.2091 14.5997C26.0127 15.3192 26.0809 16.554 25.3613 17.3576L19.765 23.6076C19.5846 23.8091 19.3644 23.9708 19.1183 24.0828C18.8721 24.1947 18.6054 24.2542 18.3351 24.2577L18.3099 24.2578Z" fill="#F9FFFB"></path>
    <path d="M20.1562 22.7865C18.8906 22.7865 17.8646 21.7605 17.8646 20.4949C17.8641 20.0834 17.9749 19.6794 18.1854 19.3257L17.5148 18.6146C16.7748 17.8299 15.5385 17.7936 14.7538 18.5336C13.969 19.2736 13.9327 20.5097 14.6728 21.2945L16.889 23.6447C17.0716 23.8383 17.2918 23.9925 17.5361 24.098C17.7805 24.2034 18.0438 24.2578 18.3099 24.2578C18.3183 24.2578 18.3267 24.2578 18.3351 24.2576C18.6054 24.2541 18.8721 24.1946 19.1183 24.0827C19.3644 23.9708 19.5846 23.809 19.765 23.6075L20.5273 22.7561C20.4047 22.7763 20.2806 22.7864 20.1562 22.7865Z" fill="#C1D8ED"></path>
    <path d="M9.9443 33.687C11.6992 35.4721 13.7353 37.0043 16.0172 38.2053C16.4142 38.4143 16.8164 38.6133 17.2233 38.8024C18.9787 39.618 21.0231 39.618 22.7786 38.8024C23.1855 38.6134 23.5877 38.4143 23.9847 38.2053C32.3627 33.7958 37.4277 24.9217 37.4277 15.454V6.96855C37.4277 5.24426 36.1151 3.81387 34.3997 3.63871C28.3979 3.02582 24.7259 1.96301 22.5935 1.09324C20.9352 0.416837 19.0666 0.416837 17.4083 1.09324C15.2759 1.96301 11.604 3.02582 5.60211 3.63871C3.88672 3.81387 2.57422 5.24426 2.57422 6.96855V15.454C2.57422 21.5389 4.66633 27.3786 8.38555 31.9454" stroke="#143254" stroke-miterlimit="10" stroke-linecap="round" stroke-linejoin="round"></path>
    <path d="M21.928 7.85552C23.566 6.04114 26.5751 7.28755 26.4504 9.7288C26.3719 11.2661 27.6399 12.5341 29.1772 12.4556C31.6184 12.3309 32.8648 15.3401 31.0505 16.978C29.9079 18.0096 29.9079 19.8028 31.0505 20.8343C32.8649 22.4723 31.6184 25.4814 29.1772 25.3567C27.6399 25.2782 26.3719 26.5461 26.4504 28.0835C26.5751 30.5247 23.566 31.7711 21.928 29.9568C20.8964 28.8142 19.1032 28.8142 18.0718 29.9568C16.4337 31.7711 13.4246 30.5247 13.5493 28.0835C13.6278 26.5461 12.3599 25.2782 10.8225 25.3567C8.38136 25.4814 7.13496 22.4722 8.94925 20.8343C10.0918 19.8027 10.0918 18.0095 8.94925 16.978C7.13488 15.34 8.38136 12.3309 10.8225 12.4556C12.3599 12.5341 13.6278 11.2661 13.5493 9.7288C13.4246 7.28763 16.4338 6.04122 18.0718 7.85552C19.1032 8.9981 20.8965 8.9981 21.928 7.85552Z" stroke="#143254" stroke-miterlimit="10" stroke-linecap="round" stroke-linejoin="round"></path>
    <path d="M21.6571 15.6387L22.4512 14.7518C23.1707 13.9483 24.4054 13.88 25.2091 14.5997C26.0127 15.3192 26.0809 16.554 25.3613 17.3576L19.765 23.6076C19.5846 23.8091 19.3644 23.9708 19.1183 24.0827C18.8722 24.1946 18.6055 24.2542 18.3351 24.2577C18.0648 24.2612 17.7967 24.2085 17.5477 24.103C17.2988 23.9975 17.0745 23.8414 16.889 23.6447L14.6728 21.2946C13.9327 20.5098 13.969 19.2736 14.7538 18.5336C15.5385 17.7936 16.7748 17.8299 17.5148 18.6147L18.2727 19.4185L20.0867 17.3926" stroke="#143254" stroke-miterlimit="10" stroke-linecap="round" stroke-linejoin="round"></path>
  </symbol>
  <symbol fill="none" xmlns="http://www.w3.org/2000/svg" viewBox="0 0 40 40" id="customercare">
    <g clip-path="url(#clip0_455_698)">
      <mask id="mask0_455_698" maskUnits="userSpaceOnUse" x="0" y="0" width="40" height="40">
        <path d="M40 0H0V40H40V0Z" fill="white"></path>
      </mask>
      <g mask="url(#mask0_455_698)">
        <path fill-rule="evenodd" clip-rule="evenodd" d="M20 17.8878C19.4258 17.8879 18.8645 17.7176 18.387 17.3986C17.9096 17.0796 17.5374 16.6262 17.3177 16.0957C17.0979 15.5652 17.0404 14.9814 17.1524 14.4182C17.2645 13.8551 17.541 13.3377 17.947 12.9317C18.353 12.5257 18.8703 12.2492 19.4335 12.1371C19.9967 12.0251 20.5804 12.0826 21.1109 12.3023C21.6414 12.5221 22.0949 12.8942 22.4139 13.3716C22.7329 13.8491 22.9032 14.4104 22.9032 14.9846C22.9023 15.7543 22.5962 16.4923 22.0519 17.0365C21.5077 17.5808 20.7697 17.887 20 17.8878ZM20 11.1058C19.2328 11.1057 18.4829 11.3332 17.8449 11.7594C17.207 12.1856 16.7098 12.7914 16.4162 13.5002C16.1226 14.209 16.0458 14.9889 16.1954 15.7413C16.3451 16.4938 16.7145 17.185 17.257 17.7275C17.7995 18.2699 18.4906 18.6394 19.2431 18.7891C19.9955 18.9387 20.7755 18.8619 21.4843 18.5683C22.193 18.2747 22.7989 17.7775 23.2251 17.1396C23.6513 16.5017 23.8788 15.7518 23.8788 14.9846C23.8777 13.9562 23.4687 12.9703 22.7415 12.2431C22.0143 11.5159 21.0284 11.1069 20 11.1058ZM27.4788 26.8675C28.814 25.4152 29.6973 23.6055 30.0211 21.6594C30.3448 19.7134 30.0948 17.7152 29.3018 15.9088C28.5087 14.1025 27.2068 12.5661 25.5551 11.4874C23.9033 10.4087 21.9732 9.83422 20.0004 9.83422C18.0276 9.83422 16.0975 10.4087 14.4458 11.4874C12.7941 12.5661 11.4922 14.1025 10.6991 15.9088C9.90601 17.7152 9.65607 19.7134 9.97978 21.6594C10.3035 23.6055 11.1869 25.4152 12.522 26.8675V23.6651C12.5233 22.5676 12.9599 21.5155 13.736 20.7395C14.5121 19.9636 15.5644 19.5271 16.6618 19.526H23.339C24.4365 19.5271 25.4887 19.9635 26.2648 20.7394C27.0409 21.5154 27.4775 22.5675 27.4788 23.6649V26.8675ZM22.0667 20.5016C22.1574 20.5461 22.2323 20.6173 22.2813 20.7058C22.3287 20.7826 22.3538 20.8711 22.3538 20.9614C22.3538 21.0517 22.3287 21.1403 22.2813 21.2171L20.444 24.4C20.3989 24.4777 20.3342 24.5421 20.2564 24.5869C20.1785 24.6317 20.0903 24.6553 20.0005 24.6553C19.9107 24.6553 19.8224 24.6317 19.7446 24.5869C19.6667 24.5421 19.602 24.4777 19.5569 24.4L17.7195 21.2167C17.6721 21.1398 17.6469 21.0513 17.6469 20.961C17.6469 20.8707 17.6721 20.7822 17.7195 20.7053C17.7684 20.6169 17.8434 20.5457 17.9342 20.5013L22.0667 20.5016ZM16.7057 29.6099V25.8833C16.7057 25.754 16.6543 25.6299 16.5628 25.5384C16.4713 25.4469 16.3472 25.3955 16.2178 25.3955C16.0885 25.3955 15.9644 25.4469 15.8729 25.5384C15.7814 25.6299 15.73 25.754 15.73 25.8833V29.2158C14.9273 28.8424 14.1768 28.3657 13.4974 27.798V23.665C13.4986 22.8262 13.8323 22.0222 14.4255 21.4291C15.0187 20.8361 15.8229 20.5026 16.6617 20.5017H16.7478C16.6821 20.6997 16.6595 20.9095 16.6813 21.117C16.7032 21.3246 16.7691 21.525 16.8747 21.705L18.7121 24.8879C18.8428 25.1139 19.0306 25.3015 19.2567 25.4319C19.4828 25.5624 19.7392 25.631 20.0003 25.631C20.2613 25.631 20.5177 25.5624 20.7438 25.4319C20.9699 25.3015 21.1577 25.1139 21.2884 24.8879L23.1259 21.7046C23.2313 21.5246 23.2971 21.3241 23.319 21.1167C23.3408 20.9092 23.3182 20.6995 23.2527 20.5014H23.3388C24.1776 20.5023 24.9818 20.8359 25.575 21.429C26.1682 22.022 26.502 22.8261 26.5031 23.6649V27.7975C25.8896 28.3099 25.2181 28.7484 24.5023 29.1041V25.8833C24.5006 25.7551 24.4485 25.6326 24.3572 25.5425C24.2659 25.4524 24.1427 25.4019 24.0145 25.4019C23.8862 25.4019 23.7631 25.4524 23.6718 25.5425C23.5805 25.6326 23.5284 25.7551 23.5267 25.8833V29.5272C21.3303 30.3391 18.9213 30.368 16.7057 29.6099ZM20 8.86667C13.861 8.86667 8.86668 13.8609 8.86668 20C8.86668 26.1391 13.861 31.1333 20 31.1333C26.139 31.1333 31.1342 26.139 31.1342 20C31.1342 13.861 26.1398 8.86667 20 8.86667ZM39.0244 21.5008V18.5025C39.0273 18.3695 38.9862 18.2393 38.9076 18.132C38.829 18.0247 38.7172 17.9463 38.5895 17.9089L36.1935 17.1545C36.1103 17.1283 36.0356 17.0802 35.9773 17.0153C35.9189 16.9503 35.8791 16.871 35.8618 16.7854C35.4515 14.7443 34.6476 12.8026 33.4952 11.0688C33.447 10.9964 33.4191 10.9124 33.4144 10.8256C33.4097 10.7388 33.4284 10.6523 33.4685 10.5752L34.6261 8.33459C34.6896 8.21821 34.7131 8.08413 34.6928 7.95309C34.6725 7.82205 34.6097 7.70133 34.5139 7.60959L32.3934 5.48867C32.3015 5.39261 32.1804 5.32961 32.049 5.30948C31.9175 5.28934 31.7831 5.3132 31.6667 5.37734L29.4366 6.53826C29.3593 6.57862 29.2726 6.5975 29.1855 6.59293C29.0984 6.58835 29.0141 6.5605 28.9414 6.51226C27.2085 5.35801 25.2671 4.55278 23.226 4.14167C23.1409 4.12436 23.062 4.08464 22.9975 4.02662C22.9329 3.96861 22.885 3.8944 22.8587 3.81167L22.0935 1.40917C22.0559 1.28196 21.9776 1.17063 21.8705 1.09233C21.7635 1.01403 21.6336 0.973096 21.501 0.975841H18.5024C18.3695 0.973048 18.2394 1.01416 18.1323 1.0928C18.0252 1.17145 17.9469 1.28323 17.9098 1.41084L17.1545 3.80759C17.1286 3.89087 17.0807 3.96562 17.0159 4.02398C16.951 4.08234 16.8717 4.12216 16.7862 4.13926C14.745 4.54935 12.8033 5.35322 11.0695 6.50592C10.9972 6.55411 10.9132 6.58202 10.8264 6.58674C10.7396 6.59146 10.6532 6.57282 10.576 6.53276L8.33434 5.37442C8.21781 5.3112 8.08374 5.28801 7.95275 5.30843C7.82176 5.32885 7.7011 5.39174 7.60934 5.48742L5.48868 7.60659C5.3928 7.69881 5.32994 7.82002 5.3098 7.95152C5.28967 8.08302 5.31337 8.21749 5.37726 8.33417L6.53909 10.5635C6.57932 10.6409 6.59805 10.7276 6.59333 10.8147C6.58861 10.9018 6.56061 10.986 6.51226 11.0586C5.35818 12.7916 4.55298 14.733 4.14167 16.7741C4.12435 16.8593 4.08463 16.9383 4.02662 17.003C3.9686 17.0677 3.89438 17.1158 3.81159 17.1423L1.40918 17.9073C1.2821 17.9449 1.17086 18.0231 1.09257 18.13C1.01428 18.2369 0.973268 18.3665 0.975842 18.499V21.4974C0.972987 21.6304 1.01407 21.7607 1.09273 21.8679C1.17139 21.9752 1.28323 22.0536 1.41093 22.0908L3.80751 22.8454C3.89069 22.8718 3.96531 22.9199 4.02364 22.9848C4.08197 23.0497 4.12189 23.129 4.13926 23.2145C4.54931 25.2557 5.35318 27.1974 6.50593 28.9312C6.5541 29.0035 6.582 29.0874 6.58673 29.1742C6.59147 29.261 6.57286 29.3474 6.53284 29.4246L5.37451 31.6653C5.31132 31.7818 5.28816 31.9159 5.30859 32.0469C5.32902 32.1778 5.39191 32.2985 5.48759 32.3903L7.60784 34.5105C7.69971 34.6067 7.82086 34.6699 7.95237 34.69C8.08388 34.7102 8.21837 34.6862 8.33484 34.6219L10.5639 33.4609C10.6414 33.4206 10.7282 33.4018 10.8154 33.4064C10.9026 33.4109 10.987 33.4388 11.0598 33.487C12.7923 34.6414 14.7332 35.4469 16.774 35.8583C16.8592 35.8757 16.9382 35.9154 17.003 35.9734C17.0677 36.0314 17.1159 36.1056 17.1424 36.1884L17.9073 38.5908C17.9449 38.7181 18.0233 38.8294 18.1304 38.9077C18.2376 38.986 18.3674 39.0269 18.5001 39.0242H21.4983C21.6312 39.027 21.7614 38.9859 21.8685 38.9073C21.9757 38.8286 22.0539 38.7168 22.0911 38.5892L22.8455 36.1933C22.8718 36.11 22.9198 36.0353 22.9848 35.977C23.0497 35.9186 23.129 35.8788 23.2146 35.8615C25.2561 35.4516 27.198 34.6474 28.9317 33.4941C29.0041 33.4461 29.0881 33.4183 29.1749 33.4136C29.2616 33.4089 29.3481 33.4274 29.4253 33.4673L31.667 34.6256C31.7835 34.689 31.9176 34.7123 32.0486 34.6918C32.1797 34.6714 32.3003 34.6084 32.392 34.5126L34.5115 32.3931C34.6077 32.301 34.6708 32.1798 34.691 32.0483C34.7113 31.9167 34.6877 31.7822 34.6238 31.6654L33.4619 29.4362C33.4216 29.3589 33.4027 29.2722 33.4073 29.1851C33.4119 29.098 33.4397 29.0138 33.4879 28.9411C34.6424 27.2082 35.4479 25.2668 35.8595 23.2256C35.8767 23.1404 35.9164 23.0613 35.9744 22.9965C36.0324 22.9318 36.1067 22.8837 36.1896 22.8573L38.592 22.0931C38.7191 22.0553 38.8302 21.9769 38.9084 21.8698C38.9866 21.7627 39.0272 21.6334 39.0244 21.5008ZM38.8828 16.9788L36.7583 16.3098C36.3287 14.342 35.5521 12.4664 34.465 10.7708L35.4927 8.78217C35.6493 8.48126 35.7057 8.13818 35.6536 7.80298C35.6015 7.46777 35.4437 7.15797 35.2032 6.91876L33.0838 4.79926C32.8441 4.5579 32.5332 4.39973 32.197 4.34795C31.8607 4.29616 31.5167 4.35348 31.2154 4.51151L29.2392 5.54167C27.5441 4.45386 25.669 3.67619 23.7016 3.24501L23.0229 1.11317C22.9209 0.789651 22.7183 0.507168 22.4445 0.306923C22.1707 0.106678 21.8401 -0.000854455 21.5008 7.2563e-06H18.5024C18.1623 -0.00101979 17.8308 0.107003 17.5566 0.308221C17.2824 0.509438 17.08 0.793253 16.9789 1.11801L16.3099 3.24226C14.3423 3.67218 12.467 4.44881 10.7715 5.53584L8.78226 4.50734C8.48138 4.35104 8.13848 4.29483 7.80345 4.3469C7.46842 4.39897 7.15875 4.5566 6.91951 4.79684L4.79926 6.91709C4.55809 7.15681 4.40009 7.46751 4.34844 7.80361C4.29679 8.13971 4.3542 8.48351 4.51226 8.78459L5.54168 10.761C4.45413 12.4562 3.67643 14.3311 3.24484 16.2984L1.11318 16.9773C0.789666 17.0792 0.507193 17.2819 0.30695 17.5557C0.106706 17.8295 -0.000834912 18.1601 9.01766e-06 18.4993V21.4975C-0.00113611 21.8376 0.106809 22.1692 0.30799 22.4434C0.509172 22.7176 0.792989 22.9201 1.11776 23.0212L3.24218 23.6903C3.67198 25.6581 4.44865 27.5337 5.53584 29.2293L4.50751 31.2178C4.35112 31.5189 4.29492 31.8619 4.3471 32.1971C4.39928 32.5323 4.5571 32.842 4.79759 33.0813L6.91717 35.2017C7.15716 35.4427 7.46798 35.6005 7.80415 35.6522C8.14032 35.7038 8.48418 35.6465 8.78543 35.4886L10.7619 34.4583C12.4569 35.5461 14.3319 36.3238 16.2992 36.7551L16.9782 38.8868C17.0801 39.2103 17.2827 39.4927 17.5565 39.693C17.8303 39.8932 18.1608 40.0008 18.5 40H21.4984C21.8385 40.001 22.17 39.893 22.4442 39.6918C22.7184 39.4906 22.9209 39.2068 23.0219 38.8821L23.6912 36.7585C25.6588 36.3283 27.5343 35.5517 29.2301 34.465L31.2188 35.4927C31.5196 35.649 31.8624 35.7052 32.1974 35.6532C32.5324 35.6011 32.8421 35.4435 33.0813 35.2033L35.2016 33.0828C35.4426 32.843 35.6005 32.5323 35.6521 32.1963C35.7037 31.8603 35.6464 31.5165 35.4885 31.2154L34.4583 29.2389C35.5467 27.5441 36.3246 25.6691 36.7558 23.7017L38.8875 23.0228C39.2109 22.9207 39.4932 22.718 39.6933 22.4442C39.8934 22.1705 40.0009 21.8399 40 21.5008V18.5025C40.0011 18.1626 39.8932 17.8312 39.6923 17.557C39.4913 17.2828 39.2073 17.0802 38.8828 16.9788Z" fill="#143254"></path>
        <path fill-rule="evenodd" clip-rule="evenodd" d="M16.708 25.8832V29.61C18.9236 30.3681 21.3328 30.3387 23.5292 29.5267V25.8832C23.5308 25.7549 23.583 25.6325 23.6743 25.5424C23.7656 25.4523 23.8887 25.4018 24.017 25.4018C24.1452 25.4018 24.2683 25.4523 24.3596 25.5424C24.4509 25.6325 24.5031 25.7549 24.5047 25.8832V29.1044C25.2206 28.7487 25.8921 28.3102 26.5056 27.7978V23.665C26.5045 22.8262 26.1707 22.0221 25.5775 21.429C24.9843 20.836 24.1801 20.5024 23.3413 20.5015H23.2552C23.3207 20.6995 23.3433 20.9092 23.3215 21.1167C23.2996 21.3242 23.2338 21.5246 23.1284 21.7046L21.2909 24.888C21.1602 25.1139 20.9724 25.3015 20.7463 25.432C20.5202 25.5624 20.2638 25.6311 20.0027 25.6311C19.7417 25.6311 19.4853 25.5624 19.2592 25.432C19.0331 25.3015 18.8453 25.1139 18.7146 24.888L16.8772 21.7048C16.7717 21.5248 16.7058 21.3243 16.6839 21.1168C16.662 20.9093 16.6847 20.6995 16.7504 20.5015H16.6642C15.8255 20.5024 15.0213 20.8359 14.4281 21.4289C13.8349 22.0219 13.5011 22.826 13.5 23.6648V27.7974C14.1793 28.3651 14.9299 28.8418 15.7326 29.2152V25.8832C15.7326 25.7538 15.784 25.6298 15.8755 25.5383C15.967 25.4468 16.091 25.3954 16.2204 25.3954C16.3498 25.3954 16.4739 25.4468 16.5654 25.5383C16.6569 25.6298 16.708 25.7538 16.708 25.8832Z" fill="#3983C7"></path>
        <path fill-rule="evenodd" clip-rule="evenodd" d="M17.717 21.217L19.5544 24.4004C19.5995 24.478 19.6642 24.5425 19.7421 24.5873C19.8199 24.6321 19.9081 24.6557 19.998 24.6557C20.0878 24.6557 20.176 24.6321 20.2538 24.5873C20.3317 24.5425 20.3964 24.478 20.4415 24.4004L22.2788 21.2175C22.3263 21.1406 22.3514 21.0521 22.3514 20.9618C22.3514 20.8715 22.3263 20.783 22.2788 20.7061C22.2299 20.6177 22.155 20.5464 22.0642 20.502H17.9317C17.8409 20.5464 17.7659 20.6176 17.717 20.706C17.6696 20.7828 17.6445 20.8713 17.6445 20.9615C17.6445 21.0518 17.6696 21.1402 17.717 21.217Z" fill="white" fill-opacity="0.1"></path>
        <path fill-rule="evenodd" clip-rule="evenodd" d="M17.0977 14.9843C17.0977 15.5584 17.2681 16.1196 17.5871 16.597C17.9061 17.0743 18.3596 17.4463 18.89 17.6659C19.4205 17.8855 20.0041 17.9429 20.5672 17.8309C21.1303 17.7188 21.6475 17.4422 22.0534 17.0362C22.4593 16.6302 22.7357 16.1129 22.8476 15.5498C22.9596 14.9867 22.902 14.403 22.6822 13.8726C22.4624 13.3422 22.0903 12.8889 21.6129 12.57C21.1355 12.2511 20.5742 12.081 20.0001 12.0811C19.2305 12.0821 18.4927 12.3884 17.9486 12.9326C17.4045 13.4769 17.0985 14.2147 17.0977 14.9843Z" fill="white" fill-opacity="0.1"></path>
        <path fill-rule="evenodd" clip-rule="evenodd" d="M20.0009 8.86655C26.1406 8.86655 31.135 13.8608 31.1349 19.9999C31.1349 26.139 26.1407 31.1332 20.0009 31.1332C13.861 31.1332 8.86753 26.1389 8.86753 19.9999C8.86753 13.8609 13.8619 8.86655 20.0009 8.86655ZM38.5925 22.0934C38.7196 22.0556 38.8308 21.9772 38.9089 21.8701C38.9871 21.763 39.0279 21.6333 39.0251 21.5007V18.5024C39.028 18.3694 38.9869 18.2392 38.9083 18.1318C38.8297 18.0245 38.7179 17.9461 38.5902 17.9088L36.1942 17.1544C36.111 17.1281 36.0363 17.08 35.978 17.0151C35.9196 16.9502 35.8798 16.8709 35.8625 16.7853C35.4521 14.7442 34.6483 12.8025 33.4959 11.0686C33.4477 10.9963 33.4198 10.9123 33.4151 10.8255C33.4104 10.7387 33.4291 10.6522 33.4692 10.5751L34.6268 8.33447C34.6903 8.21809 34.7138 8.08401 34.6935 7.95297C34.6732 7.82192 34.6104 7.70121 34.5146 7.60947L32.3943 5.48855C32.3024 5.39249 32.1813 5.32949 32.0498 5.30935C31.9184 5.28922 31.784 5.31308 31.6675 5.37722L29.4375 6.53814C29.3601 6.5785 29.2734 6.59738 29.1863 6.59281C29.0992 6.58823 29.0149 6.56037 28.9423 6.51214C27.2094 5.35789 25.268 4.55266 23.2269 4.14155C23.1418 4.12423 23.0629 4.08452 22.9983 4.0265C22.9337 3.96849 22.8858 3.89428 22.8595 3.81155L22.0944 1.40905C22.0568 1.28184 21.9784 1.17051 21.8714 1.09221C21.7643 1.01391 21.6345 0.972974 21.5019 0.975719H18.5033C18.3704 0.972927 18.2403 1.01404 18.1332 1.09268C18.026 1.17133 17.9478 1.28311 17.9106 1.41072L17.1554 3.80747C17.1294 3.89074 17.0815 3.96549 17.0167 4.02386C16.9519 4.08222 16.8726 4.12204 16.787 4.13914C14.7458 4.54923 12.8041 5.3531 11.0704 6.5058C10.998 6.55399 10.9141 6.5819 10.8273 6.58662C10.7405 6.59134 10.654 6.5727 10.5769 6.53264L8.3352 5.3743C8.21867 5.31108 8.0846 5.28789 7.95361 5.30831C7.82262 5.32872 7.70196 5.39161 7.6102 5.4873L5.48953 7.60647C5.39366 7.69869 5.3308 7.8199 5.31066 7.9514C5.29053 8.0829 5.31423 8.21737 5.37812 8.33405L6.53995 10.5634C6.58018 10.6408 6.59891 10.7275 6.59419 10.8146C6.58947 10.9017 6.56147 10.9859 6.51312 11.0585C5.35904 12.7915 4.55383 14.7329 4.14253 16.774C4.12521 16.8591 4.08549 16.9382 4.02748 17.0029C3.96946 17.0676 3.89523 17.1157 3.81245 17.1422L1.41004 17.9072C1.28296 17.9447 1.17172 18.023 1.09343 18.1299C1.01514 18.2368 0.974128 18.3664 0.976702 18.4989V21.4973C0.973847 21.6303 1.01493 21.7605 1.09359 21.8678C1.17225 21.9751 1.28409 22.0534 1.41179 22.0907L3.80837 22.8453C3.89155 22.8717 3.96617 22.9198 4.0245 22.9847C4.08283 23.0496 4.12275 23.1289 4.14012 23.2144C4.55017 25.2556 5.35404 27.1973 6.50678 28.9311C6.55496 29.0034 6.58286 29.0873 6.58759 29.1741C6.59233 29.2609 6.57372 29.3473 6.5337 29.4245L5.37537 31.6651C5.31218 31.7817 5.28902 31.9157 5.30945 32.0467C5.32988 32.1777 5.39277 32.2984 5.48845 32.3901L7.6087 34.5104C7.70057 34.6066 7.82172 34.6697 7.95323 34.6899C8.08474 34.71 8.21922 34.6861 8.3357 34.6218L10.5648 33.4608C10.6422 33.4205 10.7291 33.4016 10.8163 33.4062C10.9035 33.4108 10.9879 33.4387 11.0607 33.4869C12.7931 34.6413 14.7341 35.4468 16.7749 35.8582C16.8601 35.8756 16.9391 35.9153 17.0038 35.9733C17.0686 36.0313 17.1167 36.1055 17.1433 36.1883L17.9082 38.5907C17.9458 38.718 18.0242 38.8293 18.1313 38.9076C18.2384 38.9859 18.3683 39.0268 18.5009 39.0241H21.4992C21.6321 39.0269 21.7622 38.9858 21.8694 38.9071C21.9766 38.8285 22.0548 38.7167 22.0919 38.5891L22.8464 36.1931C22.8726 36.1099 22.9207 36.0352 22.9856 35.9769C23.0505 35.9185 23.1299 35.8786 23.2155 35.8614C25.2569 35.4514 27.1989 34.6473 28.9325 33.494C29.005 33.446 29.0889 33.4182 29.1757 33.4135C29.2625 33.4088 29.349 33.4273 29.4262 33.4671L31.6679 34.6255C31.7843 34.6889 31.9185 34.7121 32.0495 34.6917C32.1805 34.6713 32.3012 34.6083 32.3929 34.5125L34.5124 32.393C34.6085 32.3009 34.6716 32.1797 34.6919 32.0482C34.7122 31.9166 34.6885 31.782 34.6246 31.6653L33.4628 29.4361C33.4225 29.3587 33.4036 29.272 33.4082 29.185C33.4127 29.0979 33.4406 29.0136 33.4888 28.941C34.6432 27.208 35.4488 25.2667 35.8604 23.2255C35.8775 23.1402 35.9172 23.0611 35.9753 22.9964C36.0333 22.9316 36.1076 22.8836 36.1904 22.8572L38.5925 22.0934Z" fill="#C1D8ED"></path>
      </g>
    </g>
    <defs>
      <clipPath id="clip0_455_698">
        <rect width="40" height="40" fill="white"></rect>
      </clipPath>
    </defs>
  </symbol>
  <symbol fill="none" xmlns="http://www.w3.org/2000/svg" viewBox="0 0 40 40" id="easybooking">
    <path d="M31.875 5C33.2563 5 34.375 6.11875 34.375 7.5V32.2762C34.375 33.6575 33.2563 34.7762 31.875 34.7762H4.375C2.99375 34.7762 1.875 33.6575 1.875 32.2762V7.5C1.875 6.11875 2.99375 5 4.375 5H31.875Z" fill="#F9FFFB"></path>
    <path d="M4.375 34.7762H31.875C33.2563 34.7762 34.375 33.6575 34.375 32.2762V18.75C28.46 25.2213 18.4537 29.9813 1.875 30.8706V32.2762C1.875 33.6575 2.99375 34.7762 4.375 34.7762Z" fill="#C1D8ED"></path>
    <path opacity="0.2" d="M31.875 38.75C35.672 38.75 38.75 35.672 38.75 31.875C38.75 28.078 35.672 25 31.875 25C28.078 25 25 28.078 25 31.875C25 35.672 28.078 38.75 31.875 38.75Z" fill="#3983C7"></path>
    <path d="M35.9933 26.3809C36.889 27.5674 37.3735 29.0136 37.3733 30.5002C37.3733 34.2971 34.2952 37.3752 30.4983 37.3752C28.9508 37.3752 27.5277 36.8577 26.3789 35.9946C27.6327 37.6652 29.6233 38.7502 31.8733 38.7502C35.6702 38.7502 38.7483 35.6721 38.7483 31.8752C38.7483 29.6252 37.6633 27.6346 35.9933 26.3809Z" fill="#C1D8ED"></path>
    <path d="M34.375 11.25H1.875V7.5C1.875 6.83696 2.13839 6.20107 2.60723 5.73223C3.07607 5.26339 3.71196 5 4.375 5H31.875C32.538 5 33.1739 5.26339 33.6428 5.73223C34.1116 6.20107 34.375 6.83696 34.375 7.5V11.25Z" fill="#3983C7"></path>
    <path d="M7.5 8.125C7.16848 8.125 6.85054 7.9933 6.61612 7.75888C6.3817 7.52446 6.25 7.20652 6.25 6.875V3.125C6.25 2.79348 6.3817 2.47554 6.61612 2.24112C6.85054 2.0067 7.16848 1.875 7.5 1.875C7.83152 1.875 8.14946 2.0067 8.38388 2.24112C8.6183 2.47554 8.75 2.79348 8.75 3.125V6.875C8.75 7.20652 8.6183 7.52446 8.38388 7.75888C8.14946 7.9933 7.83152 8.125 7.5 8.125ZM14.375 8.125C14.0435 8.125 13.7255 7.9933 13.4911 7.75888C13.2567 7.52446 13.125 7.20652 13.125 6.875V3.125C13.125 2.79348 13.2567 2.47554 13.4911 2.24112C13.7255 2.0067 14.0435 1.875 14.375 1.875C14.7065 1.875 15.0245 2.0067 15.2589 2.24112C15.4933 2.47554 15.625 2.79348 15.625 3.125V6.875C15.625 7.20652 15.4933 7.52446 15.2589 7.75888C15.0245 7.9933 14.7065 8.125 14.375 8.125ZM21.875 8.125C21.5435 8.125 21.2255 7.9933 20.9911 7.75888C20.7567 7.52446 20.625 7.20652 20.625 6.875V3.125C20.625 2.79348 20.7567 2.47554 20.9911 2.24112C21.2255 2.0067 21.5435 1.875 21.875 1.875C22.2065 1.875 22.5245 2.0067 22.7589 2.24112C22.9933 2.47554 23.125 2.79348 23.125 3.125V6.875C23.125 7.20652 22.9933 7.52446 22.7589 7.75888C22.5245 7.9933 22.2065 8.125 21.875 8.125ZM28.75 8.125C28.4185 8.125 28.1005 7.9933 27.8661 7.75888C27.6317 7.52446 27.5 7.20652 27.5 6.875V3.125C27.5 2.79348 27.6317 2.47554 27.8661 2.24112C28.1005 2.0067 28.4185 1.875 28.75 1.875C29.0815 1.875 29.3995 2.0067 29.6339 2.24112C29.8683 2.47554 30 2.79348 30 3.125V6.875C30 7.20652 29.8683 7.52446 29.6339 7.75888C29.3995 7.9933 29.0815 8.125 28.75 8.125Z" fill="#3983C7"></path>
    <path d="M5.625 14.375H9.375V18.125H5.625V14.375ZM12.5 14.375H16.25V18.125H12.5V14.375ZM19.375 14.375H23.125V18.125H19.375V14.375ZM26.25 14.375H30V18.125H26.25V14.375ZM5.625 21.25H9.375V25H5.625V21.25ZM12.5 21.25H16.25V25H12.5V21.25ZM19.375 21.25H23.125V25H19.375V21.25ZM26.25 21.25H30V25H26.25V21.25ZM5.625 28.125H9.375V31.875H5.625V28.125ZM12.5 28.125H16.25V31.875H12.5V28.125ZM19.375 28.125H23.125V31.875H19.375V28.125Z" fill="#C1D8ED"></path>
    <path d="M35 25.0656V7.5C35 5.77688 33.5981 4.375 31.875 4.375H30.625V3.125C30.625 2.09125 29.7838 1.25 28.75 1.25C27.7162 1.25 26.875 2.09125 26.875 3.125V4.375H23.75V3.125C23.75 2.09125 22.9088 1.25 21.875 1.25C20.8412 1.25 20 2.09125 20 3.125V4.375H16.25V3.125C16.25 2.09125 15.4087 1.25 14.375 1.25C13.3413 1.25 12.5 2.09125 12.5 3.125V4.375H9.375V3.125C9.375 2.09125 8.53375 1.25 7.5 1.25C6.46625 1.25 5.625 2.09125 5.625 3.125V4.375H4.375C2.65188 4.375 1.25 5.77688 1.25 7.5V32.5C1.25 34.2231 2.65188 35.625 4.375 35.625H25.3894C26.6894 37.8625 29.1063 39.375 31.875 39.375C36.0106 39.375 39.375 36.0106 39.375 31.875C39.375 28.8556 37.5775 26.2537 35 25.0656ZM28.125 3.125C28.125 2.95924 28.1908 2.80027 28.3081 2.68306C28.4253 2.56585 28.5842 2.5 28.75 2.5C28.9158 2.5 29.0747 2.56585 29.1919 2.68306C29.3092 2.80027 29.375 2.95924 29.375 3.125V6.875C29.375 7.04076 29.3092 7.19973 29.1919 7.31694C29.0747 7.43415 28.9158 7.5 28.75 7.5C28.5842 7.5 28.4253 7.43415 28.3081 7.31694C28.1908 7.19973 28.125 7.04076 28.125 6.875V3.125ZM21.25 3.125C21.25 2.95924 21.3158 2.80027 21.4331 2.68306C21.5503 2.56585 21.7092 2.5 21.875 2.5C22.0408 2.5 22.1997 2.56585 22.3169 2.68306C22.4342 2.80027 22.5 2.95924 22.5 3.125V6.875C22.5 7.04076 22.4342 7.19973 22.3169 7.31694C22.1997 7.43415 22.0408 7.5 21.875 7.5C21.7092 7.5 21.5503 7.43415 21.4331 7.31694C21.3158 7.19973 21.25 7.04076 21.25 6.875V3.125ZM13.75 3.125C13.75 2.95924 13.8158 2.80027 13.9331 2.68306C14.0503 2.56585 14.2092 2.5 14.375 2.5C14.5408 2.5 14.6997 2.56585 14.8169 2.68306C14.9342 2.80027 15 2.95924 15 3.125V6.875C15 7.04076 14.9342 7.19973 14.8169 7.31694C14.6997 7.43415 14.5408 7.5 14.375 7.5C14.2092 7.5 14.0503 7.43415 13.9331 7.31694C13.8158 7.19973 13.75 7.04076 13.75 6.875V3.125ZM6.875 3.125C6.875 2.95924 6.94085 2.80027 7.05806 2.68306C7.17527 2.56585 7.33424 2.5 7.5 2.5C7.66576 2.5 7.82473 2.56585 7.94194 2.68306C8.05915 2.80027 8.125 2.95924 8.125 3.125V6.875C8.125 7.04076 8.05915 7.19973 7.94194 7.31694C7.82473 7.43415 7.66576 7.5 7.5 7.5C7.33424 7.5 7.17527 7.43415 7.05806 7.31694C6.94085 7.19973 6.875 7.04076 6.875 6.875V3.125ZM4.375 5.625H5.625V6.875C5.625 7.90875 6.46625 8.75 7.5 8.75C8.53375 8.75 9.375 7.90875 9.375 6.875V5.625H12.5V6.875C12.5 7.90875 13.3413 8.75 14.375 8.75C15.4087 8.75 16.25 7.90875 16.25 6.875V5.625H20V6.875C20 7.90875 20.8412 8.75 21.875 8.75C22.9088 8.75 23.75 7.90875 23.75 6.875V5.625H26.875V6.875C26.875 7.90875 27.7162 8.75 28.75 8.75C29.7838 8.75 30.625 7.90875 30.625 6.875V5.625H31.875C32.9088 5.625 33.75 6.46625 33.75 7.5V10.625H2.5V7.5C2.5 6.46625 3.34125 5.625 4.375 5.625ZM4.375 34.375C3.34125 34.375 2.5 33.5337 2.5 32.5V11.875H33.75V24.6219C33.138 24.4604 32.5079 24.3775 31.875 24.375C31.4481 24.375 31.0325 24.4188 30.625 24.4875V21.25C30.625 21.0842 30.5592 20.9253 30.4419 20.8081C30.3247 20.6908 30.1658 20.625 30 20.625H26.25C26.0842 20.625 25.9253 20.6908 25.8081 20.8081C25.6908 20.9253 25.625 21.0842 25.625 21.25V25C25.625 25.1658 25.6908 25.3247 25.8081 25.4419C25.9253 25.5592 26.0842 25.625 26.25 25.625H27.7375C25.7144 26.9694 24.375 29.2675 24.375 31.875C24.375 32.7525 24.5344 33.5919 24.8125 34.375H4.375ZM29.375 24.375H26.875V21.875H29.375V24.375ZM31.875 38.125C28.4287 38.125 25.625 35.3213 25.625 31.875C25.625 28.4287 28.4287 25.625 31.875 25.625C35.3213 25.625 38.125 28.4287 38.125 31.875C38.125 35.3213 35.3213 38.125 31.875 38.125Z" fill="#143254"></path>
    <path d="M32.5 30.7981V26.875H31.25V30.7981C30.8781 31.015 30.625 31.4137 30.625 31.875C30.625 31.9381 30.6344 31.9988 30.6437 32.06L28.3594 33.8869L29.1406 34.8631L31.4231 33.0375C31.5637 33.0925 31.715 33.125 31.875 33.125C32.2065 33.125 32.5245 32.9933 32.7589 32.7589C32.9933 32.5245 33.125 32.2065 33.125 31.875C33.125 31.4137 32.8719 31.015 32.5 30.7981ZM9.375 13.75H5.625C5.45924 13.75 5.30027 13.8158 5.18306 13.9331C5.06585 14.0503 5 14.2092 5 14.375V18.125C5 18.2908 5.06585 18.4497 5.18306 18.5669C5.30027 18.6842 5.45924 18.75 5.625 18.75H9.375C9.54076 18.75 9.69973 18.6842 9.81694 18.5669C9.93415 18.4497 10 18.2908 10 18.125V14.375C10 14.2092 9.93415 14.0503 9.81694 13.9331C9.69973 13.8158 9.54076 13.75 9.375 13.75ZM8.75 17.5H6.25V15H8.75V17.5ZM16.25 13.75H12.5C12.3342 13.75 12.1753 13.8158 12.0581 13.9331C11.9408 14.0503 11.875 14.2092 11.875 14.375V18.125C11.875 18.2908 11.9408 18.4497 12.0581 18.5669C12.1753 18.6842 12.3342 18.75 12.5 18.75H16.25C16.4158 18.75 16.5747 18.6842 16.6919 18.5669C16.8092 18.4497 16.875 18.2908 16.875 18.125V14.375C16.875 14.2092 16.8092 14.0503 16.6919 13.9331C16.5747 13.8158 16.4158 13.75 16.25 13.75ZM15.625 17.5H13.125V15H15.625V17.5ZM23.125 13.75H19.375C19.2092 13.75 19.0503 13.8158 18.9331 13.9331C18.8158 14.0503 18.75 14.2092 18.75 14.375V18.125C18.75 18.2908 18.8158 18.4497 18.9331 18.5669C19.0503 18.6842 19.2092 18.75 19.375 18.75H23.125C23.2908 18.75 23.4497 18.6842 23.5669 18.5669C23.6842 18.4497 23.75 18.2908 23.75 18.125V14.375C23.75 14.2092 23.6842 14.0503 23.5669 13.9331C23.4497 13.8158 23.2908 13.75 23.125 13.75ZM22.5 17.5H20V15H22.5V17.5ZM26.25 18.75H30C30.1658 18.75 30.3247 18.6842 30.4419 18.5669C30.5592 18.4497 30.625 18.2908 30.625 18.125V14.375C30.625 14.2092 30.5592 14.0503 30.4419 13.9331C30.3247 13.8158 30.1658 13.75 30 13.75H26.25C26.0842 13.75 25.9253 13.8158 25.8081 13.9331C25.6908 14.0503 25.625 14.2092 25.625 14.375V18.125C25.625 18.2908 25.6908 18.4497 25.8081 18.5669C25.9253 18.6842 26.0842 18.75 26.25 18.75ZM26.875 15H29.375V17.5H26.875V15ZM9.375 20.625H5.625C5.45924 20.625 5.30027 20.6908 5.18306 20.8081C5.06585 20.9253 5 21.0842 5 21.25V25C5 25.1658 5.06585 25.3247 5.18306 25.4419C5.30027 25.5592 5.45924 25.625 5.625 25.625H9.375C9.54076 25.625 9.69973 25.5592 9.81694 25.4419C9.93415 25.3247 10 25.1658 10 25V21.25C10 21.0842 9.93415 20.9253 9.81694 20.8081C9.69973 20.6908 9.54076 20.625 9.375 20.625ZM8.75 24.375H6.25V21.875H8.75V24.375ZM16.25 20.625H12.5C12.3342 20.625 12.1753 20.6908 12.0581 20.8081C11.9408 20.9253 11.875 21.0842 11.875 21.25V25C11.875 25.1658 11.9408 25.3247 12.0581 25.4419C12.1753 25.5592 12.3342 25.625 12.5 25.625H16.25C16.4158 25.625 16.5747 25.5592 16.6919 25.4419C16.8092 25.3247 16.875 25.1658 16.875 25V21.25C16.875 21.0842 16.8092 20.9253 16.6919 20.8081C16.5747 20.6908 16.4158 20.625 16.25 20.625ZM15.625 24.375H13.125V21.875H15.625V24.375ZM23.125 20.625H19.375C19.2092 20.625 19.0503 20.6908 18.9331 20.8081C18.8158 20.9253 18.75 21.0842 18.75 21.25V25C18.75 25.1658 18.8158 25.3247 18.9331 25.4419C19.0503 25.5592 19.2092 25.625 19.375 25.625H23.125C23.2908 25.625 23.4497 25.5592 23.5669 25.4419C23.6842 25.3247 23.75 25.1658 23.75 25V21.25C23.75 21.0842 23.6842 20.9253 23.5669 20.8081C23.4497 20.6908 23.2908 20.625 23.125 20.625ZM22.5 24.375H20V21.875H22.5V24.375ZM9.375 27.5H5.625C5.45924 27.5 5.30027 27.5658 5.18306 27.6831C5.06585 27.8003 5 27.9592 5 28.125V31.875C5 32.0408 5.06585 32.1997 5.18306 32.3169C5.30027 32.4342 5.45924 32.5 5.625 32.5H9.375C9.54076 32.5 9.69973 32.4342 9.81694 32.3169C9.93415 32.1997 10 32.0408 10 31.875V28.125C10 27.9592 9.93415 27.8003 9.81694 27.6831C9.69973 27.5658 9.54076 27.5 9.375 27.5ZM8.75 31.25H6.25V28.75H8.75V31.25ZM16.25 27.5H12.5C12.3342 27.5 12.1753 27.5658 12.0581 27.6831C11.9408 27.8003 11.875 27.9592 11.875 28.125V31.875C11.875 32.0408 11.9408 32.1997 12.0581 32.3169C12.1753 32.4342 12.3342 32.5 12.5 32.5H16.25C16.4158 32.5 16.5747 32.4342 16.6919 32.3169C16.8092 32.1997 16.875 32.0408 16.875 31.875V28.125C16.875 27.9592 16.8092 27.8003 16.6919 27.6831C16.5747 27.5658 16.4158 27.5 16.25 27.5ZM15.625 31.25H13.125V28.75H15.625V31.25ZM23.125 27.5H19.375C19.2092 27.5 19.0503 27.5658 18.9331 27.6831C18.8158 27.8003 18.75 27.9592 18.75 28.125V31.875C18.75 32.0408 18.8158 32.1997 18.9331 32.3169C19.0503 32.4342 19.2092 32.5 19.375 32.5H23.125C23.2908 32.5 23.4497 32.4342 23.5669 32.3169C23.6842 32.1997 23.75 32.0408 23.75 31.875V28.125C23.75 27.9592 23.6842 27.8003 23.5669 27.6831C23.4497 27.5658 23.2908 27.5 23.125 27.5ZM22.5 31.25H20V28.75H22.5V31.25Z" fill="#143254"></path>
  </symbol>
  <symbol fill="none" xmlns="http://www.w3.org/2000/svg" viewBox="0 0 40 40" id="sustainabletour">
    <g clip-path="url(#clip0_455_685)">
      <mask id="mask0_455_685" maskUnits="userSpaceOnUse" x="0" y="0" width="40" height="40">
        <path d="M40 0H0V40H40V0Z" fill="white"></path>
      </mask>
      <g mask="url(#mask0_455_685)">
        <path d="M19.9992 39.4135C30.7209 39.4135 39.4125 30.7219 39.4125 20.0002C39.4125 9.27854 30.7209 0.586914 19.9992 0.586914C9.27756 0.586914 0.585938 9.27854 0.585938 20.0002C0.585938 30.7219 9.27756 39.4135 19.9992 39.4135Z" fill="#C1D8ED"></path>
        <path d="M19.9988 0.586914C19.392 0.586914 18.792 0.616211 18.1992 0.670664C28.077 1.57887 35.8128 9.88543 35.8128 20.0001C35.8128 30.1148 28.077 38.4214 18.1992 39.3295C18.7975 39.3849 19.398 39.4129 19.9988 39.4132C30.7204 39.4132 39.412 30.7217 39.412 20C39.412 9.2784 30.7204 0.586914 19.9988 0.586914Z" fill="#3983C7"></path>
        <path d="M34.1422 5.85781C30.3646 2.08031 25.3422 0 20 0C14.6578 0 9.63539 2.08031 5.85781 5.85781C2.08023 9.63531 0 14.6578 0 20C0 25.3422 2.08031 30.3646 5.85781 34.1422C9.63531 37.9198 14.6578 40 20 40C25.3422 40 30.3646 37.9197 34.1422 34.1422C37.9198 30.3647 40 25.3422 40 20C40 14.6578 37.9197 9.63539 34.1422 5.85781ZM3.87937 10.2632C6.0732 10.784 8.41906 11.193 10.864 11.4842C10.2868 13.9491 9.96305 16.6453 9.92289 19.4131H1.18359C1.28328 16.1383 2.21539 13.007 3.87937 10.2632ZM1.18359 20.5868H9.92273C9.96937 23.8577 10.4048 26.9963 11.1846 29.7815C8.89781 30.0433 6.69492 30.4073 4.62258 30.8684C2.4932 27.8691 1.29719 24.3213 1.18359 20.5868ZM6.68773 33.3123C6.23766 32.8621 5.81028 32.3899 5.40719 31.8973C7.34875 31.4855 9.40367 31.1605 11.5301 30.9235C11.8851 32.0122 12.2955 33.0378 12.7588 33.9851C13.6937 35.8963 14.7925 37.3834 15.9981 38.4014C12.4968 37.6473 9.28055 35.9051 6.68773 33.3123ZM19.4132 38.7838C17.3284 38.4889 15.3584 36.6287 13.8131 33.4694C13.4075 32.64 13.0445 31.7461 12.7254 30.7999C14.9019 30.5941 17.1447 30.4813 19.4132 30.4646V38.7838ZM19.4132 29.2909C17.0225 29.3083 14.6591 29.4316 12.3684 29.6559C11.5834 26.9284 11.144 23.829 11.0966 20.5868H19.4131L19.4132 29.2909ZM19.4132 19.4132H11.0967C11.1374 16.6816 11.461 14.0269 12.0379 11.614C14.4281 11.8589 16.9024 11.9934 19.4131 12.0115L19.4132 19.4132ZM19.4132 10.8377C17.0047 10.8201 14.6316 10.6939 12.337 10.4646C12.6548 9.33875 13.0302 8.27555 13.4602 7.29336C13.4911 7.22277 13.5078 7.14678 13.5093 7.06973C13.5109 6.99269 13.4972 6.91609 13.4692 6.84432C13.4411 6.77254 13.3992 6.707 13.3458 6.65144C13.2924 6.59587 13.2286 6.55137 13.158 6.52047C13.0874 6.48954 13.0114 6.47282 12.9343 6.47127C12.8573 6.46972 12.7807 6.48337 12.7089 6.51143C12.6371 6.53949 12.5716 6.58142 12.516 6.63482C12.4605 6.68822 12.416 6.75205 12.3851 6.82266C11.9099 7.90812 11.4991 9.0875 11.1557 10.3366C8.85336 10.0676 6.64023 9.69273 4.56211 9.21703C5.19605 8.31393 5.90727 7.46762 6.68773 6.68766C9.27977 4.0957 12.4948 2.35375 15.9948 1.59922C15.1791 2.29016 14.4098 3.19914 13.702 4.31789C13.6191 4.44941 13.5918 4.60846 13.626 4.76012C13.6603 4.91178 13.7533 5.04364 13.8847 5.12676C14.0161 5.20988 14.1751 5.23746 14.3268 5.20344C14.4785 5.16942 14.6105 5.07658 14.6938 4.94531C16.3947 2.25711 18.117 1.40102 19.4132 1.21609V10.8377ZM38.8164 19.4132H30.0772C30.0375 16.6287 29.7159 13.9402 29.1402 11.4838C31.5836 11.1927 33.928 10.7837 36.1205 10.2632C37.7846 13.007 38.7167 16.1382 38.8164 19.4132ZM33.3123 6.68773C34.0927 7.46769 34.8039 8.31397 35.4378 9.21703C33.3609 9.69242 31.1491 10.0672 28.848 10.3363C28.4174 8.77344 27.8794 7.31984 27.2411 6.01492C26.3062 4.10367 25.2074 2.61656 24.0018 1.59859C27.5032 2.35273 30.7195 4.09492 33.3123 6.68773ZM20.5868 1.21617C22.6716 1.51109 24.6416 3.37125 26.1869 6.53063C26.769 7.72078 27.2638 9.0432 27.6659 10.4643C25.3704 10.6937 22.9963 10.82 20.5869 10.8377L20.5868 1.21617ZM20.5868 12.0114C23.0986 11.9933 25.5741 11.8588 27.9655 11.6136C28.5411 14.0178 28.8632 16.6641 28.9034 19.4132H20.5868V12.0114ZM20.5868 38.7843V30.4646C22.8534 30.4813 25.0942 30.5939 27.269 30.7993C26.675 32.5632 25.9379 34.1244 25.0937 35.3802C24.1291 36.8154 22.5935 38.5014 20.5868 38.7843ZM33.3123 33.3123C30.7192 35.9052 27.5027 37.6475 24.0011 38.4016C24.7308 37.7845 25.4236 36.9934 26.0679 36.0349C27.0239 34.6127 27.8331 32.8848 28.4706 30.9235C30.5968 31.1605 32.6516 31.4855 34.5929 31.8973C34.1897 32.3899 33.7623 32.8621 33.3123 33.3123ZM35.3773 30.8684C33.305 30.4073 31.102 30.0433 28.8151 29.7815C29.1167 28.7002 29.3691 27.5577 29.5681 26.364C29.5808 26.288 29.5784 26.2102 29.561 26.1351C29.5437 26.0601 29.5117 25.9891 29.4669 25.9264C29.4221 25.8637 29.3654 25.8104 29.3 25.7697C29.2346 25.7289 29.1619 25.7013 29.0859 25.6887C28.7655 25.6348 28.4638 25.8513 28.4105 26.1709C28.2084 27.383 27.944 28.5515 27.6259 29.6553C25.337 29.4313 22.9755 29.3083 20.5868 29.2909V20.5868H28.9033C28.8893 21.5614 28.8387 22.5351 28.7514 23.5059C28.7441 23.5872 28.7537 23.6691 28.7798 23.7464C28.8059 23.8237 28.8478 23.8947 28.9029 23.9549C28.9579 24.0151 29.0249 24.0632 29.0996 24.096C29.1743 24.1289 29.255 24.1458 29.3366 24.1457C29.4829 24.1455 29.6239 24.0907 29.7319 23.9919C29.8399 23.8931 29.9071 23.7576 29.9203 23.6118C30.0107 22.6058 30.063 21.5967 30.0771 20.5867H38.8164C38.7028 24.3213 37.5068 27.8691 35.3773 30.8684Z" fill="#143254"></path>
      </g>
    </g>
    <defs>
      <clipPath id="clip0_455_685">
        <rect width="40" height="40" fill="white"></rect>
      </clipPath>
    </defs>
  </symbol>


  
</svg>