<svg width="0" height="0" class="hidden">

<!-- Header SVGs -->
  <symbol fill="none" xmlns="http://www.w3.org/2000/svg" viewBox="0 0 32 32" id="headerwhatsapp">
    <g clip-path="url(#clip0_387_339)">
      <path d="M0 32L2.752 23.7446C1.35559 21.3959 0.551724 18.6549 0.551724 15.7241C0.551724 7.04 7.59172 0 16.2759 0C24.96 0 32 7.04 32 15.7241C32 24.4083 24.96 31.4483 16.2759 31.4483C13.6337 31.4483 11.1454 30.7934 8.96 29.6425L0 32Z" fill="#2CB742"></path>
      <path d="M26.3077 20.9572C25.5816 19.585 22.9041 18.0159 22.9041 18.0159C22.2983 17.6706 21.5673 17.6319 21.2219 18.2477C21.2219 18.2477 20.3518 19.291 20.1306 19.441C19.1198 20.1257 18.1836 20.0992 17.2385 19.1541L15.042 16.9577L12.8456 14.7613C11.9005 13.8162 11.874 12.8799 12.5587 11.8692C12.7088 11.6479 13.7521 10.7779 13.7521 10.7779C14.3678 10.4319 14.3292 9.70145 13.9838 9.09566C13.9838 9.09566 12.4147 6.41814 11.0426 5.69207C10.4589 5.38311 9.74218 5.49125 9.27542 5.95801L8.30549 6.92794C5.22852 10.0049 6.74356 13.4786 9.82052 16.5555L12.6327 19.3677L15.4448 22.1798C18.5218 25.2568 21.9954 26.7718 25.0724 23.6948L26.0423 22.7249C26.5091 22.257 26.6167 21.5403 26.3077 20.9572Z" fill="white"></path>
    </g>
    <defs>
      <clipPath id="clip0_387_339">
        <rect width="32" height="32" fill="white"></rect>
      </clipPath>
    </defs>
  </symbol>

  <!-- Header Search --> 
  <symbol fill="none" xmlns="http://www.w3.org/2000/svg" viewBox="0 0 433 443" id="headersearch">
    <path fill-rule="evenodd" clip-rule="evenodd" d="M207.787 32C110.869 32 32 110.827 32 207.744C32 304.661 110.869 383.509 207.787 383.509C304.683 383.509 383.531 304.661 383.531 207.744C383.531 110.827 304.661 32 207.787 32ZM207.787 415.509C93.2267 415.509 0 322.304 0 207.744C0 93.184 93.248 0 207.808 0C322.368 0 415.552 93.184 415.552 207.744C415.552 322.304 322.347 415.509 207.787 415.509Z" fill="currentColor"></path>
    <path fill-rule="evenodd" clip-rule="evenodd" d="M416.32 442.069C412.078 442.066 408.011 440.378 405.014 437.376L329.835 362.453C328.346 360.969 327.164 359.205 326.356 357.263C325.549 355.322 325.132 353.24 325.129 351.137C325.123 346.891 326.804 342.815 329.803 339.808C332.802 336.801 336.872 335.108 341.119 335.102C345.366 335.096 349.441 336.777 352.448 339.776L427.627 414.763C429.872 416.996 431.403 419.847 432.025 422.952C432.647 426.057 432.333 429.278 431.121 432.204C429.909 435.13 427.856 437.63 425.22 439.386C422.585 441.143 419.487 442.077 416.32 442.069Z" fill="currentColor"></path>
  </symbol>

  <!-- Mobile Call on Header -->
  <symbol fill="none" xmlns="http://www.w3.org/2000/svg" viewBox="0 0 459 459" id="mobilewhatsapp">
    <path d="M241.395 335.775C234.307 329.654 225.213 326.355 215.849 326.508C206.484 326.662 197.504 330.256 190.62 336.606C188.556 338.554 186.112 340.054 183.44 341.01C180.768 341.966 177.927 342.358 175.096 342.161C172.324 341.974 169.62 341.219 167.153 339.94C164.687 338.662 162.51 336.889 160.76 334.732C136.676 305.502 115.839 273.742 98.6144 240.012C97.3364 237.547 96.5791 234.845 96.3896 232.075C96.2002 229.304 96.5826 226.524 97.5131 223.908C99.4258 218.518 103.425 214.248 109.299 211.649C125.934 204.288 134.261 184.484 127.943 167.424L111.637 115.123C107.222 97.3862 89.0602 85.7358 71.0823 89.1266L69.981 89.3391C57.7596 91.6594 46.1863 96.6011 36.0583 103.824C25.9303 111.047 17.4882 120.379 11.3135 131.178C5.18802 141.832 1.44511 153.687 0.342733 165.926C-0.759643 178.166 0.80472 190.499 4.92802 202.076C36.7709 291.042 89.3324 371.151 158.267 435.78C167.242 444.175 177.931 450.522 189.598 454.384C201.265 458.245 213.631 459.528 225.842 458.143C238.207 456.779 250.13 452.75 260.788 446.335C271.447 439.919 280.587 431.269 287.581 420.98C292.942 413.108 295.219 403.539 293.977 394.096C292.735 384.653 288.062 375.998 280.848 369.78L241.395 335.775ZM275.602 412.836C269.784 421.396 262.179 428.592 253.312 433.929C244.445 439.266 234.525 442.616 224.238 443.749C214.106 444.893 203.846 443.827 194.165 440.625C184.484 437.423 175.612 432.161 168.159 425.202C100.913 362.15 49.6396 283.998 18.5781 197.207C15.1587 187.601 13.8629 177.368 14.7802 167.213C15.6975 157.058 18.8059 147.223 23.8913 138.385C29.0267 129.397 36.0502 121.631 44.4775 115.62C52.9047 109.609 62.5353 105.498 72.7052 103.569L73.7969 103.356C74.9754 103.144 76.154 103.028 77.3325 103.028C86.5099 103.028 95.3298 109.597 97.687 119.035L114.177 171.926C114.217 172.063 114.262 172.198 114.312 172.331C118.109 182.378 113.221 194.067 102.923 198.627C98.5106 200.542 94.5402 203.345 91.2592 206.862C87.9783 210.379 85.4572 214.534 83.8533 219.068C82.2545 223.539 81.5941 228.291 81.9132 233.028C82.2323 237.765 83.5241 242.385 85.7081 246.6C103.411 281.267 124.828 313.908 149.583 343.948C152.581 347.629 156.305 350.654 160.523 352.833C164.741 355.012 169.363 356.298 174.101 356.613C178.898 356.939 183.711 356.278 188.242 354.669C192.774 353.061 196.927 350.539 200.444 347.262C204.715 343.326 210.284 341.098 216.091 341.001C221.899 340.905 227.538 342.948 231.937 346.74L271.39 380.764C275.909 384.659 278.836 390.081 279.613 395.997C280.39 401.912 278.962 407.906 275.602 412.836Z" fill="currentColor"></path>
    <path d="M298.875 0C210.801 0 139.141 58.5612 139.141 130.541C139.141 156.971 148.762 182.417 166.963 204.095C183.752 224.246 206.86 240.031 233.957 249.885C236.517 259.188 233.667 268.394 225.108 278.605C224.283 279.588 223.734 280.773 223.517 282.037C223.3 283.302 223.423 284.602 223.873 285.804C224.323 287.005 225.084 288.066 226.079 288.877C227.073 289.688 228.265 290.221 229.533 290.42C233.494 291.038 237.377 291.347 241.164 291.347C263.276 291.347 282.201 280.895 295.523 261.149L298.875 261.207C387.074 261.207 458.832 202.588 458.832 130.541C458.832 58.5612 387.074 0 298.875 0ZM298.875 246.716L291.601 246.6C290.358 246.601 289.137 246.922 288.055 247.531C286.972 248.14 286.064 249.017 285.418 250.078C275.052 267.119 261.103 276.074 243.84 276.828C250.206 265.071 251.075 253.247 246.419 241.548C246.031 240.576 245.437 239.7 244.679 238.98C243.92 238.259 243.014 237.712 242.024 237.375C215.989 228.478 193.876 213.765 178.072 194.802C162.084 175.751 153.631 153.523 153.631 130.541C153.631 66.5503 218.79 14.4906 298.875 14.4906C379.085 14.4906 444.341 66.5503 444.341 130.541C444.341 194.589 379.085 246.716 298.875 246.716Z" fill="currentColor"></path>
    <path d="M369.173 94.2273C351.832 94.2273 337.719 108.331 337.719 125.681C337.719 143.032 351.823 157.136 369.173 157.136C386.523 157.136 400.627 143.032 400.627 125.681C400.627 108.331 386.523 94.2273 369.173 94.2273ZM369.173 142.645C359.822 142.645 352.209 135.033 352.209 125.681C352.209 116.33 359.822 108.718 369.173 108.718C378.524 108.718 386.137 116.33 386.137 125.681C386.137 135.033 378.524 142.645 369.173 142.645ZM294.324 94.2273C276.984 94.2273 262.87 108.331 262.87 125.681C262.87 143.032 276.974 157.136 294.324 157.136C311.674 157.136 325.778 143.032 325.778 125.681C325.778 108.331 311.674 94.2273 294.324 94.2273ZM294.324 142.645C284.973 142.645 277.361 135.033 277.361 125.681C277.361 116.33 284.973 108.718 294.324 108.718C303.676 108.718 311.288 116.33 311.288 125.681C311.288 135.033 303.676 142.645 294.324 142.645ZM219.466 94.2273C202.126 94.2273 188.021 108.331 188.021 125.681C188.021 143.032 202.126 157.136 219.476 157.136C236.826 157.136 250.93 143.032 250.93 125.681C250.93 108.331 236.816 94.2273 219.476 94.2273H219.466ZM219.466 142.645C210.115 142.645 202.512 135.033 202.512 125.681C202.512 116.33 210.115 108.718 219.476 108.718C228.837 108.718 236.439 116.33 236.439 125.681C236.439 135.033 228.827 142.645 219.476 142.645H219.466Z" fill="currentColor"></path>
  </symbol>


  
</svg>