<svg width="0" height="0" class="hidden">

<!-- Header SVGs -->
  <symbol fill="none" xmlns="http://www.w3.org/2000/svg" viewBox="0 0 32 32" id="headerwhatsapp">
    <g clip-path="url(#clip0_387_339)">
      <path d="M0 32L2.752 23.7446C1.35559 21.3959 0.551724 18.6549 0.551724 15.7241C0.551724 7.04 7.59172 0 16.2759 0C24.96 0 32 7.04 32 15.7241C32 24.4083 24.96 31.4483 16.2759 31.4483C13.6337 31.4483 11.1454 30.7934 8.96 29.6425L0 32Z" fill="#2CB742"></path>
      <path d="M26.3077 20.9572C25.5816 19.585 22.9041 18.0159 22.9041 18.0159C22.2983 17.6706 21.5673 17.6319 21.2219 18.2477C21.2219 18.2477 20.3518 19.291 20.1306 19.441C19.1198 20.1257 18.1836 20.0992 17.2385 19.1541L15.042 16.9577L12.8456 14.7613C11.9005 13.8162 11.874 12.8799 12.5587 11.8692C12.7088 11.6479 13.7521 10.7779 13.7521 10.7779C14.3678 10.4319 14.3292 9.70145 13.9838 9.09566C13.9838 9.09566 12.4147 6.41814 11.0426 5.69207C10.4589 5.38311 9.74218 5.49125 9.27542 5.95801L8.30549 6.92794C5.22852 10.0049 6.74356 13.4786 9.82052 16.5555L12.6327 19.3677L15.4448 22.1798C18.5218 25.2568 21.9954 26.7718 25.0724 23.6948L26.0423 22.7249C26.5091 22.257 26.6167 21.5403 26.3077 20.9572Z" fill="white"></path>
    </g>
    <defs>
      <clipPath id="clip0_387_339">
        <rect width="32" height="32" fill="white"></rect>
      </clipPath>
    </defs>
  </symbol>

  <!-- Header Search --> 
  <symbol fill="none" xmlns="http://www.w3.org/2000/svg" viewBox="0 0 433 443" id="headersearch">
    <path fill-rule="evenodd" clip-rule="evenodd" d="M207.787 32C110.869 32 32 110.827 32 207.744C32 304.661 110.869 383.509 207.787 383.509C304.683 383.509 383.531 304.661 383.531 207.744C383.531 110.827 304.661 32 207.787 32ZM207.787 415.509C93.2267 415.509 0 322.304 0 207.744C0 93.184 93.248 0 207.808 0C322.368 0 415.552 93.184 415.552 207.744C415.552 322.304 322.347 415.509 207.787 415.509Z" fill="currentColor"></path>
    <path fill-rule="evenodd" clip-rule="evenodd" d="M416.32 442.069C412.078 442.066 408.011 440.378 405.014 437.376L329.835 362.453C328.346 360.969 327.164 359.205 326.356 357.263C325.549 355.322 325.132 353.24 325.129 351.137C325.123 346.891 326.804 342.815 329.803 339.808C332.802 336.801 336.872 335.108 341.119 335.102C345.366 335.096 349.441 336.777 352.448 339.776L427.627 414.763C429.872 416.996 431.403 419.847 432.025 422.952C432.647 426.057 432.333 429.278 431.121 432.204C429.909 435.13 427.856 437.63 425.22 439.386C422.585 441.143 419.487 442.077 416.32 442.069Z" fill="currentColor"></path>
  </symbol>

  <!-- Mobile Call on Header -->
  <symbol fill="none" xmlns="http://www.w3.org/2000/svg" viewBox="0 0 459 459" id="mobilewhatsapp">
    <path d="M241.395 335.775C234.307 329.654 225.213 326.355 215.849 326.508C206.484 326.662 197.504 330.256 190.62 336.606C188.556 338.554 186.112 340.054 183.44 341.01C180.768 341.966 177.927 342.358 175.096 342.161C172.324 341.974 169.62 341.219 167.153 339.94C164.687 338.662 162.51 336.889 160.76 334.732C136.676 305.502 115.839 273.742 98.6144 240.012C97.3364 237.547 96.5791 234.845 96.3896 232.075C96.2002 229.304 96.5826 226.524 97.5131 223.908C99.4258 218.518 103.425 214.248 109.299 211.649C125.934 204.288 134.261 184.484 127.943 167.424L111.637 115.123C107.222 97.3862 89.0602 85.7358 71.0823 89.1266L69.981 89.3391C57.7596 91.6594 46.1863 96.6011 36.0583 103.824C25.9303 111.047 17.4882 120.379 11.3135 131.178C5.18802 141.832 1.44511 153.687 0.342733 165.926C-0.759643 178.166 0.80472 190.499 4.92802 202.076C36.7709 291.042 89.3324 371.151 158.267 435.78C167.242 444.175 177.931 450.522 189.598 454.384C201.265 458.245 213.631 459.528 225.842 458.143C238.207 456.779 250.13 452.75 260.788 446.335C271.447 439.919 280.587 431.269 287.581 420.98C292.942 413.108 295.219 403.539 293.977 394.096C292.735 384.653 288.062 375.998 280.848 369.78L241.395 335.775ZM275.602 412.836C269.784 421.396 262.179 428.592 253.312 433.929C244.445 439.266 234.525 442.616 224.238 443.749C214.106 444.893 203.846 443.827 194.165 440.625C184.484 437.423 175.612 432.161 168.159 425.202C100.913 362.15 49.6396 283.998 18.5781 197.207C15.1587 187.601 13.8629 177.368 14.7802 167.213C15.6975 157.058 18.8059 147.223 23.8913 138.385C29.0267 129.397 36.0502 121.631 44.4775 115.62C52.9047 109.609 62.5353 105.498 72.7052 103.569L73.7969 103.356C74.9754 103.144 76.154 103.028 77.3325 103.028C86.5099 103.028 95.3298 109.597 97.687 119.035L114.177 171.926C114.217 172.063 114.262 172.198 114.312 172.331C118.109 182.378 113.221 194.067 102.923 198.627C98.5106 200.542 94.5402 203.345 91.2592 206.862C87.9783 210.379 85.4572 214.534 83.8533 219.068C82.2545 223.539 81.5941 228.291 81.9132 233.028C82.2323 237.765 83.5241 242.385 85.7081 246.6C103.411 281.267 124.828 313.908 149.583 343.948C152.581 347.629 156.305 350.654 160.523 352.833C164.741 355.012 169.363 356.298 174.101 356.613C178.898 356.939 183.711 356.278 188.242 354.669C192.774 353.061 196.927 350.539 200.444 347.262C204.715 343.326 210.284 341.098 216.091 341.001C221.899 340.905 227.538 342.948 231.937 346.74L271.39 380.764C275.909 384.659 278.836 390.081 279.613 395.997C280.39 401.912 278.962 407.906 275.602 412.836Z" fill="currentColor"></path>
    <path d="M298.875 0C210.801 0 139.141 58.5612 139.141 130.541C139.141 156.971 148.762 182.417 166.963 204.095C183.752 224.246 206.86 240.031 233.957 249.885C236.517 259.188 233.667 268.394 225.108 278.605C224.283 279.588 223.734 280.773 223.517 282.037C223.3 283.302 223.423 284.602 223.873 285.804C224.323 287.005 225.084 288.066 226.079 288.877C227.073 289.688 228.265 290.221 229.533 290.42C233.494 291.038 237.377 291.347 241.164 291.347C263.276 291.347 282.201 280.895 295.523 261.149L298.875 261.207C387.074 261.207 458.832 202.588 458.832 130.541C458.832 58.5612 387.074 0 298.875 0ZM298.875 246.716L291.601 246.6C290.358 246.601 289.137 246.922 288.055 247.531C286.972 248.14 286.064 249.017 285.418 250.078C275.052 267.119 261.103 276.074 243.84 276.828C250.206 265.071 251.075 253.247 246.419 241.548C246.031 240.576 245.437 239.7 244.679 238.98C243.92 238.259 243.014 237.712 242.024 237.375C215.989 228.478 193.876 213.765 178.072 194.802C162.084 175.751 153.631 153.523 153.631 130.541C153.631 66.5503 218.79 14.4906 298.875 14.4906C379.085 14.4906 444.341 66.5503 444.341 130.541C444.341 194.589 379.085 246.716 298.875 246.716Z" fill="currentColor"></path>
    <path d="M369.173 94.2273C351.832 94.2273 337.719 108.331 337.719 125.681C337.719 143.032 351.823 157.136 369.173 157.136C386.523 157.136 400.627 143.032 400.627 125.681C400.627 108.331 386.523 94.2273 369.173 94.2273ZM369.173 142.645C359.822 142.645 352.209 135.033 352.209 125.681C352.209 116.33 359.822 108.718 369.173 108.718C378.524 108.718 386.137 116.33 386.137 125.681C386.137 135.033 378.524 142.645 369.173 142.645ZM294.324 94.2273C276.984 94.2273 262.87 108.331 262.87 125.681C262.87 143.032 276.974 157.136 294.324 157.136C311.674 157.136 325.778 143.032 325.778 125.681C325.778 108.331 311.674 94.2273 294.324 94.2273ZM294.324 142.645C284.973 142.645 277.361 135.033 277.361 125.681C277.361 116.33 284.973 108.718 294.324 108.718C303.676 108.718 311.288 116.33 311.288 125.681C311.288 135.033 303.676 142.645 294.324 142.645ZM219.466 94.2273C202.126 94.2273 188.021 108.331 188.021 125.681C188.021 143.032 202.126 157.136 219.476 157.136C236.826 157.136 250.93 143.032 250.93 125.681C250.93 108.331 236.816 94.2273 219.476 94.2273H219.466ZM219.466 142.645C210.115 142.645 202.512 135.033 202.512 125.681C202.512 116.33 210.115 108.718 219.476 108.718C228.837 108.718 236.439 116.33 236.439 125.681C236.439 135.033 228.827 142.645 219.476 142.645H219.466Z" fill="currentColor"></path>
  </symbol>

  <!-- Company Logo -->
  <symbol fill="none" xmlns="http://www.w3.org/2000/svg" viewBox="0 0 68 50" id="company-logo">
    <path fill-rule="evenodd" clip-rule="evenodd" d="M15.5568 32.2571C18.9877 32.1574 22.3581 32.5571 25.6681 33.4565C29.8389 34.7071 33.9584 36.1018 38.0266 37.6406C40.4874 38.5027 42.9964 39.1906 45.5537 39.7048C50.6155 40.6027 55.5213 40.0821 60.2713 38.1427C62.9127 37.0833 65.0098 35.4036 67.448 33.9174C67.4833 33.8959 67.5369 33.8692 67.6769 33.7745C67.6233 33.8421 67.6319 33.8565 67.3965 34.0859C63.7351 37.6504 59.5635 40.3477 54.6539 41.9362C50.4287 43.1306 46.178 43.2236 41.9024 42.2153C39.298 41.5639 36.7327 40.783 34.2065 39.8721C30.5988 38.4527 26.9661 37.0951 23.3088 35.7998C20.5206 34.8515 17.6557 34.2751 14.7142 34.0701C10.4839 33.8498 6.42066 34.538 2.52441 36.1345C6.55408 33.7889 10.8982 32.4962 15.5568 32.2571Z" fill="#143254"></path>
    <path fill-rule="evenodd" clip-rule="evenodd" d="M28.8735 42.3268C25.8362 40.9147 22.7279 39.6594 19.5486 38.5609C15.1854 37.1218 10.7289 36.6659 6.17916 37.1941C5.84081 37.2035 5.50378 37.2315 5.16803 37.278C3.39274 37.5606 1.67011 37.9791 0 38.533C6.61306 35.1877 13.5412 34.3415 20.7844 35.9947C23.6266 36.7497 26.4166 37.6609 29.1544 38.7282C31.6135 39.7262 34.0852 40.6932 36.5694 41.6294C39.1767 42.598 41.8542 43.3044 44.6022 43.7494C52.5525 44.5794 59.6489 42.5432 65.8922 37.6406C62.3303 41.4035 58.0426 44.1094 53.0284 45.7577C48.1001 47.1471 43.1757 47.1285 38.2545 45.7018C35.0578 44.7585 31.9307 43.6332 28.8735 42.3268Z" fill="#3983C7"></path>
    <path fill-rule="evenodd" clip-rule="evenodd" d="M29.3791 41.88C32.5085 43.3721 35.7292 44.6644 39.0411 45.7574C47.1986 48.0535 54.8752 46.975 62.0724 42.5215C62.7286 42.0762 63.384 41.6485 64.0385 41.2385C60.7524 44.4524 56.9326 46.8512 52.5789 48.435C47.6103 50.0785 42.6106 50.1718 37.5804 48.7141C34.5875 47.8285 31.6849 46.7129 28.8735 45.3668C25.8062 43.8529 22.7166 42.3838 19.6048 40.9594C16.7393 39.6885 13.7621 38.7774 10.6731 38.2259C7.08995 37.6579 3.53229 37.7694 0 38.5606C0.158804 38.4677 0.327327 38.4027 0.505567 38.3653C2.60052 37.6174 4.75114 37.0679 6.9656 36.7753C7.06454 36.7624 6.98029 36.7738 7.07713 36.7606C11.6138 36.1312 15.691 36.675 20.0542 38.1141C23.2334 39.2127 26.3417 40.4679 29.3791 41.88Z" fill="#C1D8ED"></path>
    <path d="M35.8254 18.9402L24.6235 27.3571C26.6189 26.7979 31.0197 25.505 32.6595 24.807C34.2996 24.109 35.4534 24.7399 35.8254 25.1426L41.5122 29.4192L42.4125 27.3571C43.0871 25.854 43.7691 26.0098 44.3425 26.3153L49.1254 28.732L38.606 13.2617L40.3986 23.982L35.8254 18.9402Z" fill="#143254"></path>
    <path d="M11.7355 19.7664L0.151367 30.8141L14.9692 25.0766L16.2639 29.1432L25.0197 19.4082L23.7789 24.2141L33.9536 14.972L35.8845 4.40477C43.45 11.7216 40.604 13.6061 52.3794 29.1432L52.0074 23.3515L67.8276 31.3612L35.4426 0L16.2639 19.7664H11.7355Z" fill="#143254"></path>
  </symbol>

  <!-- Package Icons -->
  <symbol fill="none" xmlns="http://www.w3.org/2000/svg" viewBox="0 0 15 16" id="package_card_duration">
    <path d="M13.5362 1.82133H12.8812V0.965433C12.8812 0.709384 12.7794 0.463823 12.5984 0.282769C12.4173 0.101715 12.1718 6.56149e-08 11.9157 6.56149e-08C11.6597 6.56149e-08 11.4141 0.101715 11.2331 0.282769C11.052 0.463823 10.9503 0.709384 10.9503 0.965433V1.82133H8.488V0.965433C8.488 0.838651 8.46303 0.71311 8.41451 0.595978C8.36599 0.478846 8.29488 0.372418 8.20523 0.282769C8.11558 0.19312 8.00915 0.122007 7.89202 0.0734892C7.77489 0.0249716 7.64935 0 7.52257 0C7.39579 0 7.27024 0.0249716 7.15311 0.0734892C7.03598 0.122007 6.92955 0.19312 6.8399 0.282769C6.75025 0.372418 6.67914 0.478846 6.63062 0.595978C6.58211 0.71311 6.55713 0.838651 6.55713 0.965433V1.82133H4.09484V0.965433C4.09484 0.709384 3.99312 0.463823 3.81207 0.282769C3.63102 0.101715 3.38545 6.56149e-08 3.12941 6.56149e-08C2.87336 6.56149e-08 2.6278 0.101715 2.44674 0.282769C2.26569 0.463823 2.16397 0.709384 2.16397 0.965433V1.82133H1.46384C1.07433 1.82323 0.701472 1.97953 0.427051 2.25597C0.15263 2.5324 -0.000947575 2.90639 4.39943e-06 3.2959V13.9374C-0.000947343 14.327 0.152668 14.701 0.427149 14.9774C0.701629 15.2539 1.07456 15.4102 1.46412 15.412H13.5362C13.9257 15.4101 14.2985 15.2538 14.5729 14.9773C14.8474 14.7009 15.0009 14.3269 15 13.9374V3.2959C15.0009 2.90634 14.8473 2.53231 14.5729 2.25587C14.2984 1.97943 13.9257 1.82315 13.5362 1.82133ZM11.5007 0.965433C11.5007 0.855364 11.5444 0.749804 11.6223 0.671973C11.7001 0.594143 11.8057 0.550418 11.9157 0.550418C12.0258 0.550418 12.1314 0.594143 12.2092 0.671973C12.287 0.749804 12.3307 0.855364 12.3307 0.965433V1.82133H11.5007V0.965433ZM7.10755 0.965433C7.10755 0.855364 7.15128 0.749804 7.22911 0.671973C7.30694 0.594143 7.4125 0.550418 7.52257 0.550418C7.63264 0.550418 7.7382 0.594143 7.81603 0.671973C7.89386 0.749804 7.93758 0.855364 7.93758 0.965433V1.82133H7.10755V0.965433ZM2.71439 0.965433C2.71439 0.855364 2.75812 0.749804 2.83595 0.671973C2.91378 0.594143 3.01934 0.550418 3.12941 0.550418C3.23947 0.550418 3.34504 0.594143 3.42287 0.671973C3.5007 0.749804 3.54442 0.855364 3.54442 0.965433V1.82133H2.71412L2.71439 0.965433ZM1.46384 2.37175H2.16397V2.90401C2.16503 3.05761 2.20254 3.20878 2.27342 3.34506C2.3443 3.48134 2.44652 3.59885 2.57168 3.68792C2.69683 3.77699 2.84134 3.83508 2.99332 3.8574C3.14531 3.87972 3.30042 3.86564 3.4459 3.81632C3.48005 3.80449 3.51154 3.78604 3.53856 3.76203C3.56559 3.73803 3.58762 3.70894 3.6034 3.67642C3.61918 3.6439 3.6284 3.60859 3.63053 3.57251C3.63267 3.53642 3.62767 3.50027 3.61584 3.46612C3.604 3.43197 3.58555 3.40048 3.56155 3.37346C3.53754 3.34643 3.50845 3.3244 3.47593 3.30862C3.44341 3.29284 3.4081 3.28362 3.37202 3.28148C3.33594 3.27935 3.29979 3.28434 3.26563 3.29618C3.20309 3.31733 3.13641 3.32335 3.07109 3.31374C3.00577 3.30413 2.94365 3.27916 2.88985 3.24088C2.83605 3.2026 2.79209 3.15211 2.76159 3.09355C2.73109 3.03499 2.71491 2.97003 2.71439 2.90401V2.37175H6.55713V2.90401C6.55743 3.15996 6.65923 3.40536 6.84022 3.58635C7.02122 3.76734 7.26661 3.86915 7.52257 3.86944C7.75952 3.88127 8.10656 3.76431 8.00914 3.46626C7.99729 3.4321 7.97883 3.40061 7.95481 3.37358C7.93079 3.34656 7.90168 3.32454 7.86915 3.30877C7.83661 3.293 7.80129 3.28379 7.7652 3.28168C7.7291 3.27957 7.69295 3.28459 7.6588 3.29645C7.59623 3.31762 7.52953 3.32363 7.46418 3.314C7.39884 3.30438 7.33671 3.27938 7.2829 3.24108C7.22909 3.20277 7.18514 3.15224 7.15466 3.09364C7.12418 3.03505 7.10803 2.97005 7.10755 2.90401V2.37175H10.9503V2.90401C10.9514 3.05758 10.9889 3.20871 11.0597 3.34496C11.1306 3.48122 11.2328 3.59871 11.3579 3.68777C11.483 3.77683 11.6275 3.83493 11.7795 3.85728C11.9314 3.87963 12.0865 3.86559 12.2319 3.81632C12.3005 3.7921 12.3566 3.74176 12.3881 3.67629C12.4197 3.61082 12.424 3.53554 12.4003 3.46687C12.3765 3.39819 12.3265 3.34171 12.2613 3.30973C12.196 3.27775 12.1208 3.27288 12.052 3.29618C11.9894 3.3174 11.9227 3.32346 11.8574 3.31388C11.792 3.30429 11.7299 3.27933 11.6761 3.24104C11.6222 3.20275 11.5783 3.15223 11.5478 3.09364C11.5173 3.03505 11.5012 2.97005 11.5007 2.90401V2.37175H13.5362C13.7797 2.3735 14.0127 2.47177 14.1839 2.64501C14.3551 2.81825 14.4507 3.05232 14.4496 3.2959V4.68158C14.409 4.65639 14.3625 4.64252 14.3147 4.6414L0.550422 4.65571V3.29618C0.549177 3.05246 0.644691 2.8182 0.815995 2.64483C0.9873 2.47146 1.2204 2.37315 1.46412 2.37148L1.46384 2.37175ZM13.5362 14.8616H1.46384C1.22027 14.8598 0.987323 14.7615 0.816093 14.5883C0.644863 14.4151 0.549323 14.181 0.550422 13.9374V5.20613L14.3153 5.19182C14.3628 5.19059 14.4092 5.17672 14.4496 5.15164V13.9374C14.4507 14.181 14.3551 14.4152 14.1838 14.5884C14.0125 14.7617 13.7798 14.8599 13.5362 14.8616Z" fill="currentColor"></path>
    <path d="M4.21492 6.46904H2.43927C2.36628 6.46904 2.29628 6.49804 2.24467 6.54965C2.19306 6.60126 2.16406 6.67126 2.16406 6.74425V8.34817C2.16406 8.42116 2.19306 8.49116 2.24467 8.54277C2.29628 8.59438 2.36628 8.62338 2.43927 8.62338H4.21492C4.28791 8.62338 4.35791 8.59438 4.40952 8.54277C4.46113 8.49116 4.49013 8.42116 4.49013 8.34817V6.74425C4.49013 6.67126 4.46113 6.60126 4.40952 6.54965C4.35791 6.49804 4.28791 6.46904 4.21492 6.46904ZM3.93971 8.07296H2.71448V7.01946H3.93971V8.07296ZM8.12013 6.46904H6.34421C6.27122 6.46904 6.20122 6.49804 6.14961 6.54965C6.098 6.60126 6.069 6.67126 6.069 6.74425V8.34817C6.069 8.42116 6.098 8.49116 6.14961 8.54277C6.20122 8.59438 6.27122 8.62338 6.34421 8.62338H8.11986C8.19285 8.62338 8.26285 8.59438 8.31446 8.54277C8.36607 8.49116 8.39507 8.42116 8.39507 8.34817V6.74425C8.39507 6.67126 8.36607 6.60126 8.31446 6.54965C8.26285 6.49804 8.19312 6.46904 8.12013 6.46904ZM7.84493 8.07296H6.61942V7.01946H7.84465L7.84493 8.07296ZM12.0251 6.46904H10.2494C10.1764 6.46904 10.1064 6.49804 10.0548 6.54965C10.0032 6.60126 9.97422 6.67126 9.97422 6.74425V8.34817C9.97422 8.42116 10.0032 8.49116 10.0548 8.54277C10.1064 8.59438 10.1764 8.62338 10.2494 8.62338H12.0253C12.0983 8.62338 12.1683 8.59438 12.22 8.54277C12.2716 8.49116 12.3006 8.42116 12.3006 8.34817V6.74425C12.3006 6.67126 12.2716 6.60126 12.22 6.54965C12.1683 6.49804 12.0981 6.46904 12.0251 6.46904ZM11.7499 8.07296H10.5246V7.01946H11.7501L11.7499 8.07296ZM4.21492 10.374H2.43927C2.36628 10.374 2.29628 10.403 2.24467 10.4546C2.19306 10.5062 2.16406 10.5762 2.16406 10.6492V12.2531C2.16406 12.3261 2.19306 12.3961 2.24467 12.4477C2.29628 12.4993 2.36628 12.5283 2.43927 12.5283H4.21492C4.28791 12.5283 4.35791 12.4993 4.40952 12.4477C4.46113 12.3961 4.49013 12.3261 4.49013 12.2531V10.6492C4.49013 10.5762 4.46113 10.5062 4.40952 10.4546C4.35791 10.403 4.28791 10.374 4.21492 10.374ZM3.93971 11.9779H2.71448V10.9244H3.93971V11.9779ZM8.12013 10.374H6.34421C6.27122 10.374 6.20122 10.403 6.14961 10.4546C6.098 10.5062 6.069 10.5762 6.069 10.6492V12.2531C6.069 12.3261 6.098 12.3961 6.14961 12.4477C6.20122 12.4993 6.27122 12.5283 6.34421 12.5283H8.11986C8.19285 12.5283 8.26285 12.4993 8.31446 12.4477C8.36607 12.3961 8.39507 12.3261 8.39507 12.2531V10.6492C8.39507 10.5762 8.36607 10.5062 8.31446 10.4546C8.26285 10.403 8.19312 10.374 8.12013 10.374ZM7.84493 11.9779H6.61942V10.9244H7.84465L7.84493 11.9779ZM12.0251 10.374H10.2494C10.1764 10.374 10.1064 10.403 10.0548 10.4546C10.0032 10.5062 9.97422 10.5762 9.97422 10.6492V12.2531C9.97422 12.3261 10.0032 12.3961 10.0548 12.4477C10.1064 12.4993 10.1764 12.5283 10.2494 12.5283H12.0253C12.0983 12.5283 12.1683 12.4993 12.22 12.4477C12.2716 12.3961 12.3006 12.3261 12.3006 12.2531V10.6492C12.3006 10.5762 12.2716 10.5062 12.22 10.4546C12.1683 10.403 12.0981 10.374 12.0251 10.374ZM11.7499 11.9779H10.5246V10.9244H11.7501L11.7499 11.9779Z" fill="currentColor"></path>
  </symbol>
  <symbol fill="none" xmlns="http://www.w3.org/2000/svg" viewBox="0 0 82 14" id="5_star">
    <g clip-path="url(#clip0_448_308)">
      <path d="M7.33114 0.544736L9.11195 4.75961L13.6711 5.15128C13.9873 5.17858 14.1159 5.57312 13.8759 5.78081L10.4177 8.77686L11.454 13.2339C11.5259 13.5437 11.1903 13.7873 10.9186 13.6227L7.00056 11.2598L3.08249 13.6227C2.81012 13.7866 2.47523 13.5429 2.54709 13.2339L3.58339 8.77686L0.124529 5.78009C-0.1155 5.5724 0.0124195 5.17787 0.329344 5.15056L4.88845 4.75889L6.66926 0.544736C6.79287 0.251527 7.20753 0.251527 7.33114 0.544736Z" fill="currentColor"></path>
    </g>
    <g clip-path="url(#clip1_448_308)">
      <path d="M24.3311 0.544736L26.112 4.75961L30.6711 5.15128C30.9873 5.17858 31.1159 5.57312 30.8759 5.78081L27.4177 8.77686L28.454 13.2339C28.5259 13.5437 28.1903 13.7873 27.9186 13.6227L24.0006 11.2598L20.0825 13.6227C19.8101 13.7866 19.4752 13.5429 19.5471 13.2339L20.5834 8.77686L17.1245 5.78009C16.8845 5.5724 17.0124 5.17787 17.3293 5.15056L21.8885 4.75889L23.6693 0.544736C23.7929 0.251527 24.2075 0.251527 24.3311 0.544736Z" fill="currentColor"></path>
    </g>
    <g clip-path="url(#clip2_448_308)">
      <path d="M41.3311 0.544736L43.112 4.75961L47.6711 5.15128C47.9873 5.17858 48.1159 5.57312 47.8759 5.78081L44.4177 8.77686L45.454 13.2339C45.5259 13.5437 45.1903 13.7873 44.9186 13.6227L41.0006 11.2598L37.0825 13.6227C36.8101 13.7866 36.4752 13.5429 36.5471 13.2339L37.5834 8.77686L34.1245 5.78009C33.8845 5.5724 34.0124 5.17787 34.3293 5.15056L38.8885 4.75889L40.6693 0.544736C40.7929 0.251527 41.2075 0.251527 41.3311 0.544736Z" fill="currentColor"></path>
    </g>
    <g clip-path="url(#clip3_448_308)">
      <path d="M58.3311 0.544736L60.112 4.75961L64.6711 5.15128C64.9873 5.17858 65.1159 5.57312 64.8759 5.78081L61.4177 8.77686L62.454 13.2339C62.5259 13.5437 62.1903 13.7873 61.9186 13.6227L58.0006 11.2598L54.0825 13.6227C53.8101 13.7866 53.4752 13.5429 53.5471 13.2339L54.5834 8.77686L51.1245 5.78009C50.8845 5.5724 51.0124 5.17787 51.3293 5.15056L55.8885 4.75889L57.6693 0.544736C57.7929 0.251527 58.2075 0.251527 58.3311 0.544736Z" fill="currentColor"></path>
    </g>
    <g clip-path="url(#clip4_448_308)">
      <path d="M75.3311 0.544736L77.112 4.75961L81.6711 5.15128C81.9873 5.17858 82.1159 5.57312 81.8759 5.78081L78.4177 8.77686L79.454 13.2339C79.5259 13.5437 79.1903 13.7873 78.9186 13.6227L75.0006 11.2598L71.0825 13.6227C70.8101 13.7866 70.4752 13.5429 70.5471 13.2339L71.5834 8.77686L68.1245 5.78009C67.8845 5.5724 68.0124 5.17787 68.3293 5.15056L72.8885 4.75889L74.6693 0.544736C74.7929 0.251527 75.2075 0.251527 75.3311 0.544736Z" fill="currentColor"></path>
    </g>
    <defs>
      <clipPath id="clip0_448_308">
        <rect width="14" height="14" fill="white"></rect>
      </clipPath>
      <clipPath id="clip1_448_308">
        <rect width="14" height="14" fill="white" transform="translate(17)"></rect>
      </clipPath>
      <clipPath id="clip2_448_308">
        <rect width="14" height="14" fill="white" transform="translate(34)"></rect>
      </clipPath>
      <clipPath id="clip3_448_308">
        <rect width="14" height="14" fill="white" transform="translate(51)"></rect>
      </clipPath>
      <clipPath id="clip4_448_308">
        <rect width="14" height="14" fill="white" transform="translate(68)"></rect>
      </clipPath>
    </defs>
  </symbol>


  
</svg>