<svg width="520" height="170" viewBox="0 0 520 170" fill="none" xmlns="http://www.w3.org/2000/svg">
<path fill-rule="evenodd" clip-rule="evenodd" d="M52.5289 109.674C64.1136 109.335 75.4943 110.694 86.6711 113.752C100.754 118.004 114.664 122.746 128.401 127.978C136.71 130.909 145.182 133.248 153.817 134.996C170.909 138.049 187.474 136.279 203.513 129.685C212.432 126.083 219.513 120.372 227.746 115.319C227.865 115.246 228.046 115.155 228.519 114.833C228.338 115.063 228.367 115.112 227.572 115.892C215.209 128.011 201.123 137.182 184.545 142.583C170.278 146.644 155.925 146.96 141.488 143.532C132.694 141.317 124.032 138.662 115.502 135.565C103.32 130.739 91.0539 126.123 78.7046 121.719C69.2897 118.495 59.6161 116.535 49.6838 115.838C35.3996 115.089 21.6796 117.429 8.52344 122.857C22.1301 114.882 36.7985 110.487 52.5289 109.674Z" fill="#143254"/>
<path fill-rule="evenodd" clip-rule="evenodd" d="M97.4949 143.911C87.239 139.11 76.7435 134.842 66.0082 131.107C51.2755 126.214 36.2275 124.664 20.8647 126.46C19.7222 126.492 18.5842 126.587 17.4505 126.745C11.456 127.706 5.63934 129.129 0 131.012C22.3298 119.638 45.7234 116.761 70.1812 122.382C79.778 124.949 89.1988 128.047 98.4433 131.676C106.747 135.069 115.093 138.357 123.481 141.54C132.285 144.833 141.326 147.235 150.605 148.748C177.45 151.57 201.412 144.647 222.493 127.978C210.466 140.772 195.988 149.972 179.057 155.576C162.416 160.3 145.788 160.237 129.171 155.386C118.377 152.179 107.818 148.353 97.4949 143.911Z" fill="#3983C7"/>
<path fill-rule="evenodd" clip-rule="evenodd" d="M99.202 142.392C109.769 147.465 120.644 151.859 131.827 155.575C159.372 163.382 185.293 159.715 209.595 144.573C211.811 143.059 214.024 141.605 216.234 140.211C205.138 151.138 192.24 159.294 177.539 164.679C160.762 170.267 143.88 170.584 126.895 165.628C116.789 162.617 106.988 158.824 97.4949 154.247C87.1377 149.1 76.7054 144.105 66.1979 139.262C56.5224 134.941 46.4694 131.843 36.039 129.968C23.9401 128.037 11.9272 128.416 0 131.106C0.536222 130.79 1.10526 130.569 1.70711 130.442C8.78099 127.899 16.0428 126.031 23.5202 125.036C23.8543 124.992 23.5698 125.031 23.8968 124.986C39.2155 122.846 52.9826 124.695 67.7154 129.588C78.4506 133.323 88.9461 137.591 99.202 142.392Z" fill="#C1D8ED"/>
<path d="M120.969 64.3967L83.1445 93.0139C89.8822 91.1126 104.742 86.7169 110.279 84.3438C115.817 81.9706 119.713 84.1156 120.969 85.4847L140.171 100.025L143.211 93.0139C145.489 87.9036 147.792 88.4332 149.728 89.472L165.878 97.6888L130.358 45.0897L136.411 81.5386L120.969 64.3967Z" fill="#143254"/>
<path d="M39.627 67.2056L0.511719 104.768L50.5458 85.2606L54.9176 99.0868L84.4827 65.9878L80.293 82.3278L114.649 50.9048L121.169 14.9762C146.715 39.8533 137.105 46.2606 176.866 99.0868L175.61 79.395L229.029 106.628L119.677 0L54.9176 67.2056H39.627Z" fill="#143254"/>
<path d="M245.757 74.0605V33.4605H254.921V48.6565H271.219V33.4605H280.325V74.0605H271.219V56.5445H254.921V74.0605H245.757ZM285.86 74.0605V33.4605H295.024V74.0605H285.86ZM300.529 74.0605V33.4605H311.433L321.351 58.3425L330.979 33.4605H341.883V74.0605H332.719V49.6425L324.889 69.3045H317.523L309.693 49.5845V74.0605H300.529ZM343.741 74.0605L358.473 33.4605H368.971L383.761 74.0605H374.075L371.233 65.6505H356.153L353.253 74.0605H343.741ZM358.705 58.3425H368.739L363.635 43.5525L358.705 58.3425ZM386.509 74.0605V33.4605H395.673V66.1145H412.261V74.0605H386.509ZM414.202 74.0605L428.934 33.4605H439.432L454.222 74.0605H444.536L441.694 65.6505H426.614L423.714 74.0605H414.202ZM429.166 58.3425H439.2L434.096 43.5525L429.166 58.3425ZM461.924 74.0605V57.1825L448.004 33.4605H458.386L466.564 47.9025L474.684 33.4605H484.892L471.03 57.1825V74.0605H461.924ZM478.772 74.0605L493.504 33.4605H504.002L518.792 74.0605H509.106L506.264 65.6505H491.184L488.284 74.0605H478.772ZM493.736 58.3425H503.77L498.666 43.5525L493.736 58.3425Z" fill="#143254"/>
<path d="M245.757 135.061V94.4605H261.243C264.027 94.4605 266.483 94.9439 268.609 95.9105C270.736 96.8772 272.399 98.2692 273.597 100.087C274.796 101.865 275.395 103.992 275.395 106.467C275.395 109.173 274.661 111.435 273.191 113.253C271.722 115.07 269.692 116.365 267.101 117.139L278.179 135.061H267.623L257.937 118.531H254.921V135.061H245.757ZM254.921 110.759H261.069C262.5 110.759 263.563 110.546 264.259 110.121C264.994 109.657 265.497 109.096 265.767 108.439C266.038 107.781 266.173 107.124 266.173 106.467C266.173 105.809 266.038 105.171 265.767 104.553C265.497 103.895 264.994 103.354 264.259 102.929C263.563 102.503 262.5 102.291 261.069 102.291H254.921V110.759ZM281.216 135.061V94.4605H290.38V135.061H281.216ZM295.884 135.061V94.4605H312.008C314.792 94.4605 317.306 94.9632 319.548 95.9685C321.791 96.9739 323.55 98.4239 324.826 100.319C326.141 102.213 326.798 104.475 326.798 107.105C326.798 109.695 326.16 111.957 324.884 113.891C323.647 115.785 321.907 117.255 319.664 118.299C317.46 119.343 314.908 119.865 312.008 119.865H305.048V135.061H295.884ZM305.048 112.035H311.776C313.942 112.035 315.43 111.551 316.242 110.585C317.093 109.579 317.518 108.419 317.518 107.105C317.518 105.867 317.093 104.765 316.242 103.799C315.43 102.793 313.942 102.291 311.776 102.291H305.048V112.035ZM330.208 135.061V94.4605H346.332C349.116 94.4605 351.63 94.9632 353.872 95.9685C356.115 96.9739 357.874 98.4239 359.15 100.319C360.465 102.213 361.122 104.475 361.122 107.105C361.122 109.695 360.484 111.957 359.208 113.891C357.971 115.785 356.231 117.255 353.988 118.299C351.784 119.343 349.232 119.865 346.332 119.865H339.372V135.061H330.208ZM339.372 112.035H346.1C348.266 112.035 349.754 111.551 350.566 110.585C351.417 109.579 351.842 108.419 351.842 107.105C351.842 105.867 351.417 104.765 350.566 103.799C349.754 102.793 348.266 102.291 346.1 102.291H339.372V112.035ZM364.533 135.061V94.4605H373.697V127.115H390.285V135.061H364.533ZM394.835 135.061V94.4605H421.515V102.349H403.999V109.715H418.789V117.603H403.999V127.173H421.515V135.061H394.835Z" fill="#3785C9"/>
</svg>
